<svg width="126" height="138" viewBox="0 0 126 138" fill="none" xmlns="http://www.w3.org/2000/svg">
<g opacity="0.3" clip-path="url(#clip0_217_1029)">
<path d="M54.12 80.5561C54.528 81.6345 55.0746 82.4142 55.2567 82.9243C55.7012 84.1558 57.1659 85.7516 54.5936 86.5167C52.8156 87.0487 51.2125 86.8811 50.2871 84.1776C46.7967 74.027 39.5827 67.6291 29.0604 65.2318C22.8412 63.8396 16.3314 64.6536 10.6465 67.5344C8.58429 68.5254 7.61513 69.429 7.00304 65.8803C6.14318 60.8159 5.26148 55.8681 6.09947 50.7673C7.61514 41.4692 16.6946 33.8909 26.0364 34.1678C28.948 34.3609 31.8567 33.751 34.4454 32.4044C38.0306 30.4369 41.7323 31.1656 45.3757 32.5064C49.2815 33.9638 52.6626 36.281 56.1093 38.5764C62.8059 43.0432 68.1764 42.2198 73.1606 35.9021C75.8567 32.47 78.378 28.8994 80.943 25.3653C84.7759 20.0823 90.241 17.7286 96.464 16.9052C102.359 16.1182 107.278 18.2678 110.979 22.7857C119.236 32.8489 121.123 44.5662 119.061 57.034C118.332 61.2968 118.033 65.2609 119.534 69.48C121.196 74.1655 121.494 79.1934 121.866 84.1631C122.005 86.0358 121.509 86.6406 119.527 86.677C113.639 86.7863 113.639 86.8884 111.293 81.2993C109.881 78.0797 108.25 74.9609 106.411 71.9648C104.953 69.5529 103.372 69.2104 101.04 70.7479C95.5022 74.3914 90.5179 78.6906 86.9109 84.2214C84.7249 87.515 81.9267 86.5896 79.2014 86.5094C77.4307 86.4584 78.5237 85.0958 78.7934 84.3234C81.5259 76.8033 85.3515 69.9391 91.6183 64.7873C97.7047 59.8402 101.782 52.8465 103.088 45.1127C103.605 42.6636 103.33 40.1134 102.301 37.8313C101.273 35.5492 99.5451 33.6536 97.3676 32.4189C95.2124 31.1473 92.713 30.5829 90.2205 30.8051C87.728 31.0273 85.3678 32.0249 83.4715 33.6577C81.0827 35.7228 78.9098 38.0251 76.9862 40.5292C72.3736 46.7158 66.2964 47.5829 59.4394 45.7685C55.4681 44.7119 51.5696 43.3493 47.6565 42.0595C42.9201 40.5001 38.4605 42.1979 36.289 46.468C34.3288 50.3155 35.502 54.8407 39.6337 57.566C44.8074 60.9689 50.0393 64.2553 54.6446 68.4307C59.1406 72.5114 62.8715 77.0511 63.8771 83.2595C64.052 84.3817 65.094 86.2617 63.0391 86.4439C61.4069 86.5823 59.1917 87.7045 58.0476 84.9865C57.3262 83.4198 56.9619 81.2847 54.12 80.5561ZM12.5265 61.5519C12.2205 63.3372 12.7087 64.6634 15.7619 63.206C17.99 62.2573 20.3736 61.7263 22.7937 61.6393C24.3895 61.5154 24.9798 60.8669 24.2511 59.3075C23.1143 56.7935 22.167 54.1703 20.8408 51.7583C18.99 48.3772 16.1335 48.4792 14.3263 51.8895C12.9054 54.6293 12.8908 57.6971 12.5265 61.5519Z" fill="#191919"/>
<path d="M45.7717 122.165C45.7717 125.844 45.7717 135.959 45.7717 135.959L35.796 135.915C35.796 135.915 35.7523 109.413 35.6211 99.8303C35.6211 97.4548 36.3498 96.8427 38.6014 96.9156C43.3889 97.105 48.191 96.8573 52.9784 97.0905C61.9049 97.5277 66.9692 105.026 64.2075 113.559C63.2821 116.401 61.4531 118.66 58.5602 119.498C56.2721 120.19 56.6875 121.05 57.7368 122.536C60.3236 126.18 66.277 135.9 66.277 135.9H55.9952C55.9952 135.9 47.6663 124.066 46.4348 121.975L45.7717 122.165ZM50.5082 115.133C53.2408 114.601 54.6981 112.4 54.3046 109.493C53.882 106.425 51.9073 105.244 47.8703 105.39C47.1892 105.491 46.5279 105.698 45.9102 106.002V115.053C45.9102 115.053 49.8451 115.264 50.5082 115.133Z" fill="#191919"/>
<path d="M29.8857 123.621C29.8857 126.973 29.8857 130.18 29.8857 133.342C29.8857 134.595 29.0258 134.945 28.1077 135.361C25.1606 136.731 21.9199 137.35 18.6752 137.163C15.4304 136.975 12.2827 135.986 9.51331 134.285C6.74392 132.584 4.43909 130.223 2.80482 127.414C1.17055 124.604 0.257732 121.434 0.147939 118.185C-0.0779546 113.085 0.760033 108.268 3.85696 104.012C6.60492 100.339 10.5234 97.7124 14.9656 96.5665C19.4077 95.4205 24.1078 95.8236 28.2899 97.7093C29.2299 98.1538 29.9367 98.5983 29.9148 99.8298C29.8492 102.941 29.9148 106.053 29.9148 109.893C26.2204 106.679 22.7081 104.566 18.1611 105.856C15.973 106.464 14.0658 107.817 12.7688 109.682C9.91964 113.631 10.1747 120.401 13.2789 123.942C17.2575 128.496 21.0686 128.46 29.8857 123.621Z" fill="#191919"/>
<path d="M43.0583 86.6265C41.4406 86.9471 40.3111 86.1455 39.1379 84.5789C29.7524 72.0673 12.4534 72.1256 3.11889 84.5789C2.51407 85.3804 2.12059 87.0856 0.845383 86.4006C-0.728582 85.5626 0.685052 84.2655 1.14413 83.3401C5.64742 74.2242 13.1893 69.4367 23.2161 69.4222C33.2428 69.4076 40.7046 74.3845 45.3318 83.362C46.7964 86.2184 46.4904 86.6046 43.0583 86.6265Z" fill="#191919"/>
<path d="M89.5704 16.0965C88.5137 16.1257 87.4619 15.9434 86.4766 15.5604C85.4913 15.1774 84.5925 14.6014 83.833 13.8663C83.0734 13.1312 82.4683 12.2517 82.0533 11.2794C81.6383 10.3072 81.4218 9.26193 81.4164 8.20487C81.3655 6.08007 82.1606 4.02206 83.6268 2.4834C85.0931 0.944737 87.1104 0.0514003 89.2352 -0.000159977C90.321 -0.0351988 91.4029 0.147498 92.4171 0.537172C93.4312 0.926845 94.3571 1.51561 95.1401 2.26875C95.9231 3.02189 96.5475 3.92415 96.9763 4.92237C97.4051 5.9206 97.6297 6.99457 97.6369 8.08098C97.6197 10.2103 96.7626 12.2468 95.2521 13.7477C93.7416 15.2487 91.6998 16.0928 89.5704 16.0965Z" fill="#191919"/>
<path d="M27.4501 30.6707C26.3863 30.6919 25.3287 30.5023 24.3386 30.1127C23.3484 29.7231 22.4452 29.1413 21.681 28.4009C20.9168 27.6604 20.3068 26.776 19.8863 25.7985C19.4657 24.8211 19.2428 23.7701 19.2305 22.7061C19.2242 20.5587 20.0601 18.4943 21.5587 16.9562C23.0573 15.4181 25.0992 14.5288 27.2461 14.4792C29.389 14.4948 31.4432 15.3371 32.9801 16.8306C34.517 18.324 35.4179 20.3532 35.4948 22.4948C35.5046 24.6435 34.6643 26.7089 33.1573 28.2405C31.6502 29.7721 29.5987 30.6457 27.4501 30.6707Z" fill="#191919"/>
<path d="M94.6778 105.339V97.0027H70.7695V104.486V105.339V112.269V120.605V127.542V128.387V135.878H94.6778V127.542H81.2481V120.605H94.6778V112.269H81.2481V105.339H94.6778Z" fill="#191919"/>
<path d="M125.409 105.339V97.0027H101.508V104.486V105.339V112.269V120.605V127.542V128.387V135.878H125.409V127.542H111.979V120.605H125.409V112.269H111.979V105.339H125.409Z" fill="#191919"/>
</g>
<defs>
<clipPath id="clip0_217_1029">
<rect width="125.283" height="137.175" fill="white" transform="translate(0.125)"/>
</clipPath>
</defs>
</svg>
