<svg width="684" height="542" viewBox="0 0 684 542" fill="none" xmlns="http://www.w3.org/2000/svg">
<path d="M494.461 214.241L516.001 213.875L515.749 199.012L496.362 199.341C491.408 199.425 490.762 199.436 490.66 193.405L489.786 141.924C489.625 132.446 489.625 132.446 498.887 132.288C500.101 132.49 501.342 132.469 502.549 132.226C504.215 131.824 505.664 130.797 506.594 129.356C507.424 127.988 507.845 126.41 507.809 124.81C507.853 123.167 507.289 121.566 506.225 120.313C505.292 118.999 503.887 118.096 502.304 117.794C497.66 116.359 492.68 116.444 488.087 118.035C483.578 119.753 479.715 122.831 477.032 126.841C476.629 127.689 475.96 128.381 475.127 128.813C474.151 129.143 473.097 129.161 472.111 128.864C466.924 128.304 461.871 126.86 457.171 124.593C452.479 122.221 448.317 118.92 444.94 114.89C443.727 113.475 442.521 112.052 441.319 110.633C436.205 104.598 431.152 98.6359 425.834 93.6673C420.733 87.7403 414.403 82.995 407.284 79.7613C400.492 76.7116 393.105 75.2175 385.663 75.3881L306.394 76.7341C303.382 76.7073 300.399 77.3121 297.636 78.5095C294.873 79.707 292.391 81.4703 290.352 83.6859C288.223 85.8578 286.578 88.456 285.525 91.3093C284.383 94.1192 283.847 97.1388 283.952 100.17C284 103.17 284.639 106.13 285.832 108.882C287.025 111.635 288.748 114.126 290.904 116.212C293.078 118.351 295.655 120.036 298.485 121.172C301.315 122.307 304.343 122.869 307.392 122.827L340.779 122.26C342.428 121.578 343.781 120.334 344.598 118.748C345.128 117.061 345.097 115.246 344.51 113.578C344.025 111.834 342.929 110.324 341.422 109.321C340.01 108.218 338.224 107.707 336.442 107.898L305.639 108.421C303.958 108.595 302.27 108.165 300.878 107.209C299.41 106.405 298.252 105.136 297.585 103.601C295.117 97.8256 298.906 92.5905 305.799 92.4735L382.052 91.1788C388.073 90.8928 394.076 92.0462 399.562 94.544C404.984 96.905 409.771 100.515 413.531 105.08C417.015 108.896 420.318 112.715 423.567 116.471C426.46 119.816 429.31 123.111 432.206 126.31C436.876 131.897 442.682 136.426 449.238 139.595C455.943 143.034 463.344 144.897 470.877 145.045C473.462 145.001 473.911 146.071 473.952 148.44L474.595 186.352C474.635 188.721 474.646 189.367 471.415 189.422L447.29 189.832C440.494 189.976 433.736 188.772 427.407 186.291C421.126 183.816 415.364 180.187 410.419 175.591L371.229 138.981C367.067 134.957 366.347 130.66 369.308 127.378C372.269 124.095 376.369 124.457 380.509 127.188L410.696 153.824L413.314 155.719C414.384 155.904 415.481 155.886 416.544 155.664C417.541 155.87 418.571 155.852 419.56 155.613C420.581 155.206 421.466 154.519 422.112 153.63C422.916 152.943 423.501 152.034 423.791 151.016C423.982 149.946 423.964 148.848 423.737 147.785C423.935 146.787 423.918 145.759 423.685 144.769C423.069 143.891 422.331 143.105 421.491 142.436L389.552 114.106C386.849 111.384 383.469 109.433 379.76 108.455C376.207 107.656 372.514 107.719 368.99 108.638C365.141 109.776 361.627 111.832 358.749 114.629C355.883 117.427 353.854 120.968 352.89 124.855C351.888 128.677 351.956 132.702 353.087 136.487C354.261 140.305 356.397 143.756 359.29 146.509C368.314 155.231 377.428 163.667 386.574 172.132C391.194 176.408 395.823 180.693 400.452 185.025C412.227 196.138 427.668 202.545 443.851 203.034L473.362 202.533C474.264 202.206 475.249 202.189 476.162 202.485C477.137 202.883 477.922 203.642 478.353 204.603C479.944 207.338 482.304 209.546 485.14 210.951C487.897 212.862 491.116 213.998 494.461 214.241Z" fill="#2A2D82"/>
<path d="M168.394 286.571C167.345 250.116 176.43 214.085 194.638 182.486C210.448 155.483 234.809 134.522 263.868 122.918C266.986 121.563 270.344 120.846 273.744 120.812C276.398 120.898 278.935 121.924 280.903 123.707C282.958 125.351 284.308 127.717 284.679 130.322C285.11 132.859 284.619 135.466 283.295 137.672C281.898 139.714 279.887 141.258 277.552 142.079C264.556 147.344 252.579 154.839 242.161 164.226C220.174 184.466 205.099 211.102 199.068 240.371C188.207 285.058 192.647 332.097 211.679 373.962C220.519 395.362 235.69 413.547 255.159 426.079C274.628 438.612 297.463 444.892 320.602 444.078C337.3 445.068 354.015 442.432 369.598 436.351C385.17 430.28 399.209 420.845 410.714 408.72C428.722 389.477 440.087 364.967 443.139 338.789C443.32 335.502 444.728 332.402 447.085 330.104C448.272 328.953 449.683 328.059 451.23 327.477C452.777 326.895 454.427 326.637 456.078 326.719C465.34 326.562 469.302 331.45 467.947 340.523C464.789 367.238 454.419 392.589 437.95 413.86C418.098 439.209 389.644 456.403 357.97 462.189C326.789 469.199 294.236 466.905 264.345 455.591C246.854 448.647 230.977 438.178 217.703 424.837C204.429 411.496 194.041 395.567 187.185 378.04C175.239 349.1 169.147 318.08 169.259 286.771L168.394 286.571Z" fill="#2A2D82"/>
<path d="M342.165 294.5C342.165 303.195 335.194 310.167 326.499 310.167C322.344 310.167 318.359 308.516 315.421 305.578C312.483 302.64 310.832 298.655 310.832 294.5C310.832 285.805 317.804 278.833 326.499 278.833C330.654 278.833 334.639 280.484 337.577 283.422C340.515 286.36 342.165 290.345 342.165 294.5ZM335.037 333.667C335.977 339.307 337.935 344.555 340.677 349.333H279.499C275.344 349.333 271.359 347.683 268.421 344.745C265.483 341.807 263.832 337.822 263.832 333.667V255.333C263.832 246.638 270.804 239.667 279.499 239.667H287.332V224C287.332 202.38 304.879 184.833 326.499 184.833C348.119 184.833 365.665 202.38 365.665 224V239.667H373.499C377.654 239.667 381.639 241.317 384.577 244.255C387.515 247.193 389.165 251.178 389.165 255.333V279.538C386.58 279.147 383.995 278.833 381.332 278.833C378.669 278.833 376.084 279.147 373.499 279.538V255.333H279.499V333.667H335.037ZM302.999 239.667H349.999V224C349.999 210.997 339.502 200.5 326.499 200.5C313.495 200.5 302.999 210.997 302.999 224V239.667ZM399.662 301.08L371.54 329.202L359.085 316.747L349.999 325.833L371.54 349.333L408.749 312.125L399.662 301.08Z" fill="#12A099"/>
</svg>
