<svg width="48" height="24" viewBox="0 0 48 24" fill="none" xmlns="http://www.w3.org/2000/svg">
<path d="M6.83635 0.947895C7.20085 0.358628 7.84437 0 8.53726 0H46C47.1046 0 48 0.895431 48 2V22C48 23.1046 47.1046 24 46 24H8.53726C7.84437 24 7.20085 23.6414 6.83635 23.0521L0.650787 13.0521C0.251992 12.4074 0.251992 11.5926 0.650787 10.9479L6.83635 0.947895Z" fill="#FF5151"/>
<path d="M14.3617 11.44V12.976H7.78575V11.44H14.3617ZM15.4811 9.216C15.5451 8.224 15.9238 7.45067 16.6171 6.896C17.3211 6.34133 18.2171 6.064 19.3051 6.064C20.0518 6.064 20.6971 6.19733 21.2411 6.464C21.7851 6.73067 22.1958 7.09333 22.4731 7.552C22.7505 8.01067 22.8891 8.528 22.8891 9.104C22.8891 9.76533 22.7131 10.3307 22.3611 10.8C22.0091 11.2693 21.5878 11.584 21.0971 11.744V11.808C21.7265 12 22.2171 12.352 22.5691 12.864C22.9211 13.3653 23.0971 14.0107 23.0971 14.8C23.0971 15.4293 22.9531 15.9893 22.6651 16.48C22.3771 16.9707 21.9505 17.36 21.3851 17.648C20.8198 17.9253 20.1425 18.064 19.3531 18.064C18.2011 18.064 17.2518 17.7707 16.5051 17.184C15.7691 16.5867 15.3745 15.7333 15.3211 14.624H17.0811C17.1238 15.1893 17.3425 15.6533 17.7371 16.016C18.1318 16.368 18.6651 16.544 19.3371 16.544C19.9878 16.544 20.4891 16.368 20.8411 16.016C21.1931 15.6533 21.3691 15.1893 21.3691 14.624C21.3691 13.8773 21.1291 13.3493 20.6491 13.04C20.1798 12.72 19.4545 12.56 18.4731 12.56H18.0571V11.056H18.4891C19.3531 11.0453 20.0091 10.9013 20.4571 10.624C20.9158 10.3467 21.1451 9.90933 21.1451 9.312C21.1451 8.8 20.9798 8.39467 20.6491 8.096C20.3185 7.78667 19.8491 7.632 19.2411 7.632C18.6438 7.632 18.1798 7.78667 17.8491 8.096C17.5185 8.39467 17.3211 8.768 17.2571 9.216H15.4811ZM23.8131 12.016C23.8131 10.1707 24.1225 8.73067 24.7411 7.696C25.3705 6.65067 26.4478 6.128 27.9731 6.128C29.4985 6.128 30.5705 6.65067 31.1891 7.696C31.8185 8.73067 32.1331 10.1707 32.1331 12.016C32.1331 13.8827 31.8185 15.344 31.1891 16.4C30.5705 17.4453 29.4985 17.968 27.9731 17.968C26.4478 17.968 25.3705 17.4453 24.7411 16.4C24.1225 15.344 23.8131 13.8827 23.8131 12.016ZM30.3411 12.016C30.3411 11.152 30.2825 10.4213 30.1651 9.824C30.0585 9.22667 29.8345 8.74133 29.4931 8.368C29.1518 7.984 28.6451 7.792 27.9731 7.792C27.3011 7.792 26.7945 7.984 26.4531 8.368C26.1118 8.74133 25.8825 9.22667 25.7651 9.824C25.6585 10.4213 25.6051 11.152 25.6051 12.016C25.6051 12.912 25.6585 13.664 25.7651 14.272C25.8718 14.88 26.0958 15.3707 26.4371 15.744C26.7891 16.1173 27.3011 16.304 27.9731 16.304C28.6451 16.304 29.1518 16.1173 29.4931 15.744C29.8451 15.3707 30.0745 14.88 30.1811 14.272C30.2878 13.664 30.3411 12.912 30.3411 12.016ZM32.5751 9.152C32.5751 8.37333 32.7991 7.76533 33.2471 7.328C33.7058 6.88 34.2925 6.656 35.0071 6.656C35.7218 6.656 36.3031 6.88 36.7511 7.328C37.2098 7.76533 37.4391 8.37333 37.4391 9.152C37.4391 9.93067 37.2098 10.544 36.7511 10.992C36.3031 11.44 35.7218 11.664 35.0071 11.664C34.2925 11.664 33.7058 11.44 33.2471 10.992C32.7991 10.544 32.5751 9.93067 32.5751 9.152ZM42.3351 6.864L35.9511 18H34.1591L40.5431 6.864H42.3351ZM35.0071 7.76C34.3351 7.76 33.9991 8.224 33.9991 9.152C33.9991 10.0907 34.3351 10.56 35.0071 10.56C35.3271 10.56 35.5725 10.448 35.7431 10.224C35.9245 9.98933 36.0151 9.632 36.0151 9.152C36.0151 8.224 35.6791 7.76 35.0071 7.76ZM39.0871 15.696C39.0871 14.9173 39.3111 14.3093 39.7591 13.872C40.2178 13.424 40.8045 13.2 41.5191 13.2C42.2231 13.2 42.7991 13.424 43.2471 13.872C43.7058 14.3093 43.9351 14.9173 43.9351 15.696C43.9351 16.4747 43.7058 17.088 43.2471 17.536C42.7991 17.984 42.2231 18.208 41.5191 18.208C40.8045 18.208 40.2178 17.984 39.7591 17.536C39.3111 17.088 39.0871 16.4747 39.0871 15.696ZM41.5031 14.304C40.8311 14.304 40.4951 14.768 40.4951 15.696C40.4951 16.624 40.8311 17.088 41.5031 17.088C42.1751 17.088 42.5111 16.624 42.5111 15.696C42.5111 14.768 42.1751 14.304 41.5031 14.304Z" fill="white"/>
</svg>
