<svg width="220" height="220" viewBox="0 0 220 220" fill="none" xmlns="http://www.w3.org/2000/svg">
<circle cx="110" cy="110" r="110" fill="#FF5151"/>
<path d="M155.672 181.019C150.749 172.911 146.695 166.541 146.405 162.776C146.116 159.012 145.247 152.062 143.799 147.429C142.351 142.795 135.402 134.687 133.664 130.344C131.927 126 129.9 124.552 129.61 114.417C129.321 104.282 129.379 101.196 124.977 99.9383C118.896 98.2008 114.552 106.888 114.263 114.417C113.973 121.946 114.552 134.687 116.29 139.031C117.68 142.506 121.309 151.869 122.95 156.116" stroke="white" stroke-width="3.4749" stroke-linecap="round" stroke-linejoin="round"/>
<path d="M124.422 201C118.92 195.788 112.549 192.602 108.495 191.444C104.441 190.286 100.677 188.548 98.0705 187.1C95.4643 185.653 91.6999 183.915 88.8041 176.965" stroke="white" stroke-width="3.4749" stroke-linecap="round"/>
<path d="M49.6719 94.3615V64.583C49.6719 58.1859 54.8578 53 61.2549 53H105.089C111.486 53 116.672 58.1859 116.672 64.583V165.417C116.672 171.814 111.486 177 105.089 177H61.2549C54.8578 177 49.6719 171.814 49.6719 165.417V157.134" stroke="white" stroke-width="3.4749"/>
<path fill-rule="evenodd" clip-rule="evenodd" d="M101.258 52V57.2124C101.258 59.1315 99.702 60.6873 97.7829 60.6873H71.7211C69.802 60.6873 68.2462 59.1315 68.2462 57.2124V52H101.258Z" fill="white"/>
<path fill-rule="evenodd" clip-rule="evenodd" d="M52.8767 96.5651L60.0331 101.123C62.2386 102.527 62.8879 105.454 61.4833 107.659C60.0787 109.865 57.152 110.514 54.9464 109.11L47.7901 104.552C45.5845 103.148 44.9352 100.221 46.3399 98.0153C47.7445 95.8097 50.6711 95.1604 52.8767 96.5651ZM61.8997 98.1916C65.724 100.627 66.8498 105.702 64.4143 109.526C61.9787 113.35 56.9041 114.476 53.0798 112.041L45.9235 107.483C42.0992 105.048 40.9733 99.973 43.4089 96.1487C45.8444 92.3244 50.919 91.1985 54.7433 93.6341L61.8997 98.1916Z" fill="white"/>
<path fill-rule="evenodd" clip-rule="evenodd" d="M52.8767 115.098L60.0331 119.655C62.2386 121.06 62.8879 123.987 61.4833 126.192C60.0787 128.398 57.152 129.047 54.9464 127.642L47.7901 123.085C45.5845 121.68 44.9352 118.754 46.3399 116.548C47.7445 114.342 50.6711 113.693 52.8767 115.098ZM61.8997 116.724C65.724 119.16 66.8498 124.235 64.4143 128.059C61.9787 131.883 56.9041 133.009 53.0798 130.573L45.9235 126.016C42.0992 123.58 40.9733 118.506 43.4089 114.681C45.8444 110.857 50.919 109.731 54.7433 112.167L61.8997 116.724Z" fill="white"/>
<path fill-rule="evenodd" clip-rule="evenodd" d="M51.7766 133.298L59.977 138.521C61.8942 139.742 62.4587 142.286 61.2376 144.203C60.0166 146.12 57.4725 146.685 55.5552 145.464L47.3549 140.241C45.4376 139.02 44.8732 136.476 46.0942 134.559C47.3152 132.641 49.8593 132.077 51.7766 133.298ZM61.8436 135.59C65.3796 137.841 66.4205 142.533 64.1686 146.07C61.9167 149.606 57.2246 150.646 53.6886 148.395L45.4882 143.172C41.9522 140.92 40.9113 136.228 43.1632 132.692C45.4151 129.156 50.1072 128.115 53.6432 130.367L61.8436 135.59Z" fill="white"/>
<path fill-rule="evenodd" clip-rule="evenodd" d="M49.8791 149.023L56.9202 153.507C58.2863 154.377 58.6885 156.19 57.8185 157.556C56.9485 158.922 55.1357 159.324 53.7696 158.454L46.7285 153.97C45.3623 153.1 44.9602 151.287 45.8302 149.921C46.7002 148.555 48.513 148.153 49.8791 149.023ZM58.7868 150.576C61.7717 152.477 62.6504 156.438 60.7495 159.423C58.8485 162.408 54.8878 163.286 51.9029 161.385L44.8619 156.901C41.877 155 40.9983 151.04 42.8992 148.055C44.8001 145.07 48.7609 144.191 51.7457 146.092L58.7868 150.576Z" fill="white"/>
<path d="M89.3518 123.187C89.0009 122.651 88.4985 122.232 87.9092 121.981C87.3191 121.731 86.6688 121.661 86.0396 121.781L83.9787 122.232C82.9674 119.243 82.8746 116.019 83.7126 112.976L84.4339 113.17H84.4332C85.1067 113.354 85.8215 113.316 86.4717 113.06C87.1212 112.805 87.6707 112.346 88.0383 111.752L92.1595 105.154C92.5133 104.587 92.6836 103.923 92.6481 103.256C92.6126 102.587 92.3719 101.946 91.9602 101.419C90.7205 99.5563 88.7379 98.3188 86.5203 98.0223C84.2731 97.8323 81.946 98.8552 79.3753 101.184C74.9061 105.574 72.5957 111.708 73.0582 117.955C73.5845 125.032 77.2099 131.516 82.9638 135.67C84.1483 136.492 85.5453 136.954 86.9858 137C88.9801 136.861 90.8366 135.934 92.1452 134.423C92.5925 133.902 93.0006 133.348 93.3645 132.766C93.7002 132.238 93.8756 131.624 93.8698 130.998C93.864 130.373 93.6785 129.761 93.3341 129.239L89.3518 123.187ZM89.8991 132.079C88.131 133.779 87.0443 134.419 84.81 133C79.8419 129.44 76.7226 123.849 76.3028 117.752C75.8998 112.473 77.8346 107.282 81.5962 103.555C83.41 101.946 84.8033 101.179 86.2438 101.259V101.258C87.5538 101.511 88.6986 102.299 89.4025 103.433L85.2196 110.015L84.5519 109.837V109.836C83.711 109.618 82.8193 109.743 82.0705 110.182C81.3216 110.621 80.7764 111.338 80.5553 112.178C79.5687 115.826 79.689 119.686 80.9011 123.267C81.1592 123.997 81.671 124.61 82.343 124.995C83.0151 125.38 83.8031 125.511 84.5628 125.363L86.6397 124.972L90.6247 131.027C90.292 131.554 89.8962 132.07 89.8991 132.079L89.8991 132.079Z" fill="white"/>
<circle cx="61.5" cy="86.5" r="2.5" fill="white"/>
<rect x="60" y="68" width="3" height="14" fill="white"/>
<path d="M158.771 61.4792V62.8174H157.433V61.4792H158.771ZM167.246 63.2635H168.584H167.246ZM167.246 66.8321H165.908H167.246ZM158.771 68.6164H157.433V67.2781H158.771V68.6164ZM151.634 68.6164V67.2781H152.972V68.6164H151.634ZM151.634 61.4792H152.972V62.8174H151.634V61.4792ZM157.433 54.7882C157.433 54.5418 157.233 54.3421 156.987 54.3421V51.6657C158.711 51.6657 160.109 53.0637 160.109 54.7882H157.433ZM157.433 61.4792V54.7882H160.109V61.4792H157.433ZM165.462 62.8174H158.771V60.141H165.462V62.8174ZM165.908 63.2635C165.908 63.0171 165.708 62.8174 165.462 62.8174V60.141C167.186 60.141 168.584 61.539 168.584 63.2635H165.908ZM165.908 66.8321L165.908 63.2635H168.584L168.584 66.8321H165.908ZM165.462 67.2781C165.708 67.2781 165.908 67.0784 165.908 66.8321H168.584C168.584 68.5566 167.186 69.9546 165.462 69.9546V67.2781ZM158.771 67.2781H165.462V69.9546H158.771V67.2781ZM157.433 75.3075V68.6164H160.109V75.3075H157.433ZM156.987 75.7535C157.233 75.7535 157.433 75.5538 157.433 75.3075H160.109C160.109 77.032 158.711 78.43 156.987 78.43V75.7535ZM153.418 75.7535H156.987V78.43H153.418V75.7535ZM152.972 75.3075C152.972 75.5538 153.172 75.7535 153.418 75.7535V78.43C151.694 78.43 150.296 77.032 150.296 75.3075H152.972ZM152.972 68.6164V75.3075H150.296V68.6164H152.972ZM144.943 67.2781H151.634V69.9546H144.943V67.2781ZM144.496 66.8321C144.496 67.0784 144.696 67.2781 144.943 67.2781V69.9546C143.218 69.9546 141.82 68.5566 141.82 66.8321H144.496ZM144.496 63.2635V66.8321H141.82V63.2635H144.496ZM144.943 62.8174C144.696 62.8174 144.496 63.0171 144.496 63.2635H141.82C141.82 61.539 143.218 60.141 144.943 60.141V62.8174ZM151.634 62.8174H144.943V60.141H151.634V62.8174ZM152.972 54.7882V61.4792H150.296V54.7882H152.972ZM153.418 54.3421C153.172 54.3421 152.972 54.5418 152.972 54.7882H150.296C150.296 53.0637 151.694 51.6657 153.418 51.6657V54.3421ZM156.987 54.3421H153.418V51.6657H156.987V54.3421Z" fill="white"/>
<path d="M132.217 64.8982C132.217 52.2798 142.643 42.0125 155.303 42.0125C167.744 42.0125 177.988 52.1015 177.988 64.5C177.988 76.9195 167.92 86.9875 155.501 86.9875H141.144H128.162L131.222 81.5058C131.874 80.3371 132.217 79.021 132.217 77.6827V64.8982Z" stroke="white" stroke-width="4.025"/>
</svg>
