<svg width="220" height="220" viewBox="0 0 220 220" fill="none" xmlns="http://www.w3.org/2000/svg">
<path d="M44 169.019C48.9228 160.911 52.9768 154.541 53.2664 150.776C53.556 147.012 54.4247 140.062 55.8726 135.429C57.3205 130.795 64.2703 122.687 66.0077 118.344C67.7452 114 69.7722 112.552 70.0618 102.417C70.3514 92.2819 70.2926 89.1961 74.695 87.9383C80.7761 86.2008 85.1197 94.8881 85.4093 102.417C85.6988 109.946 85.1197 122.687 83.3822 127.031C81.9923 130.506 78.3629 139.869 76.722 144.116" stroke="#2A2D82" stroke-width="3.4749" stroke-linecap="round" stroke-linejoin="round"/>
<path d="M75.2461 189C80.748 183.788 87.1187 180.602 91.1727 179.444C95.2268 178.286 98.9913 176.548 101.597 175.1C104.204 173.653 107.968 171.915 110.864 164.965" stroke="#2A2D82" stroke-width="3.4749" stroke-linecap="round"/>
<path d="M150 82.3615V52.583C150 46.1859 144.814 41 138.417 41H94.583C88.1859 41 83 46.1859 83 52.583V153.417C83 159.814 88.1859 165 94.583 165H138.417C144.814 165 150 159.814 150 153.417V145.134" stroke="#2A2D82" stroke-width="3.4749"/>
<path fill-rule="evenodd" clip-rule="evenodd" d="M98.4141 40V45.2124C98.4141 47.1315 99.9698 48.6873 101.889 48.6873H127.951C129.87 48.6873 131.426 47.1315 131.426 45.2124V40H98.4141Z" fill="#2A2D82"/>
<path fill-rule="evenodd" clip-rule="evenodd" d="M146.791 84.5651L139.635 89.1226C137.429 90.5273 136.78 93.4539 138.185 95.6595C139.589 97.8651 142.516 98.5144 144.722 97.1097L151.878 92.5522C154.083 91.1476 154.733 88.2209 153.328 86.0153C151.923 83.8097 148.997 83.1604 146.791 84.5651ZM137.768 86.1916C133.944 88.6272 132.818 93.7018 135.254 97.5261C137.689 101.35 142.764 102.476 146.588 100.041L153.744 95.4832C157.569 93.0476 158.695 87.973 156.259 84.1487C153.824 80.3244 148.749 79.1985 144.925 81.6341L137.768 86.1916Z" fill="#2A2D82"/>
<path fill-rule="evenodd" clip-rule="evenodd" d="M146.791 103.098L139.635 107.655C137.429 109.06 136.78 111.987 138.185 114.192C139.589 116.398 142.516 117.047 144.722 115.642L151.878 111.085C154.083 109.68 154.733 106.754 153.328 104.548C151.923 102.342 148.997 101.693 146.791 103.098ZM137.768 104.724C133.944 107.16 132.818 112.235 135.254 116.059C137.689 119.883 142.764 121.009 146.588 118.573L153.744 114.016C157.569 111.58 158.695 106.506 156.259 102.681C153.824 98.8571 148.749 97.7313 144.925 100.167L137.768 104.724Z" fill="#2A2D82"/>
<path fill-rule="evenodd" clip-rule="evenodd" d="M147.895 121.298L139.695 126.521C137.778 127.742 137.213 130.286 138.434 132.203C139.655 134.12 142.199 134.685 144.117 133.464L152.317 128.241C154.234 127.02 154.799 124.476 153.578 122.559C152.357 120.641 149.813 120.077 147.895 121.298ZM137.828 123.59C134.292 125.841 133.251 130.533 135.503 134.07C137.755 137.606 142.447 138.646 145.983 136.395L154.184 131.172C157.72 128.92 158.761 124.228 156.509 120.692C154.257 117.156 149.565 116.115 146.029 118.367L137.828 123.59Z" fill="#2A2D82"/>
<path fill-rule="evenodd" clip-rule="evenodd" d="M149.793 137.023L142.752 141.507C141.386 142.377 140.983 144.19 141.853 145.556C142.723 146.922 144.536 147.324 145.902 146.454L152.943 141.97C154.31 141.1 154.712 139.287 153.842 137.921C152.972 136.555 151.159 136.153 149.793 137.023ZM140.885 138.576C137.9 140.477 137.021 144.438 138.922 147.423C140.823 150.408 144.784 151.286 147.769 149.385L154.81 144.901C157.795 143 158.674 139.04 156.773 136.055C154.872 133.07 150.911 132.191 147.926 134.092L140.885 138.576Z" fill="#2A2D82"/>
<path fill-rule="evenodd" clip-rule="evenodd" d="M122.159 69.9848C122.159 73.983 118.918 77.2242 114.92 77.2242C110.921 77.2242 107.68 73.983 107.68 69.9848C107.68 65.9866 110.921 62.7454 114.92 62.7454C118.918 62.7454 122.159 65.9866 122.159 69.9848ZM119.821 79.5146C123.273 77.7355 125.634 74.1358 125.634 69.9848C125.634 64.0675 120.837 59.2705 114.92 59.2705C109.002 59.2705 104.205 64.0675 104.205 69.9848C104.205 74.2305 106.675 77.8995 110.256 79.6335C106.048 81.1794 103.047 85.2219 103.047 89.9655V93.4404H106.522V89.9655C106.522 85.8074 109.893 82.4365 114.051 82.4365H116.367C120.525 82.4365 123.896 85.8074 123.896 89.9655V93.4404H127.371V89.9655C127.371 85.0947 124.207 80.9631 119.821 79.5146Z" fill="#2A2D82"/>
<path d="M97.1999 112.499V113.496H98.1973V112.499H97.1999ZM92.2127 112.499V113.496H92.2127L92.2127 112.499ZM90.8828 113.829H91.8802H90.8828ZM90.8828 116.488H89.8854H90.8828ZM97.1999 117.818H98.1973V116.821H97.1999V117.818ZM102.519 117.818V116.821H101.522V117.818H102.519ZM107.507 112.499V111.501V112.499ZM102.519 112.499H101.522V113.496H102.519V112.499ZM98.1973 107.512C98.1973 107.328 98.3461 107.179 98.5298 107.179V105.184C97.2444 105.184 96.2024 106.226 96.2024 107.512H98.1973ZM98.1973 112.499V107.512H96.2024V112.499H98.1973ZM92.2127 113.496L97.1999 113.496L97.1999 111.501L92.2127 111.501L92.2127 113.496ZM91.8802 113.829C91.8802 113.645 92.0291 113.496 92.2127 113.496V111.501C90.9274 111.501 89.8854 112.543 89.8854 113.829H91.8802ZM91.8802 116.488L91.8802 113.829H89.8854L89.8854 116.488H91.8802ZM92.2127 116.821C92.0291 116.821 91.8802 116.672 91.8802 116.488H89.8854C89.8854 117.774 90.9274 118.816 92.2127 118.816V116.821ZM97.1999 116.821H92.2127V118.816H97.1999V116.821ZM98.1973 122.805V117.818H96.2024V122.805H98.1973ZM98.5298 123.138C98.3461 123.138 98.1973 122.989 98.1973 122.805H96.2024C96.2024 124.091 97.2444 125.133 98.5298 125.133V123.138ZM101.19 123.138H98.5298V125.133H101.19V123.138ZM101.522 122.805C101.522 122.989 101.373 123.138 101.19 123.138V125.133C102.475 125.133 103.517 124.091 103.517 122.805H101.522ZM101.522 117.818V122.805H103.517V117.818H101.522ZM107.507 116.821H102.519V118.816H107.507V116.821ZM107.839 116.488C107.839 116.672 107.69 116.821 107.507 116.821V118.816C108.792 118.816 109.834 117.774 109.834 116.488H107.839ZM107.839 113.829V116.488H109.834V113.829H107.839ZM107.507 113.496C107.69 113.496 107.839 113.645 107.839 113.829H109.834C109.834 112.543 108.792 111.501 107.507 111.501V113.496ZM102.519 113.496L107.507 113.496V111.501L102.519 111.501V113.496ZM101.522 107.512V112.499H103.517V107.512H101.522ZM101.19 107.179C101.373 107.179 101.522 107.328 101.522 107.512H103.517C103.517 106.226 102.475 105.184 101.19 105.184V107.179ZM98.5298 107.179H101.19V105.184H98.5298V107.179Z" fill="#2A2D82"/>
<path fill-rule="evenodd" clip-rule="evenodd" d="M130.844 109.077L109.995 109.077V105.603L130.844 105.603L130.844 109.077ZM130.844 117.186L115.207 117.186V113.711L130.844 113.711V117.186ZM109.416 124.135L134.898 124.135L134.898 120.66L109.416 120.66V124.135ZM130.844 131.085L90.8828 131.085V127.61L130.844 127.61V131.085ZM90.8828 138.035L133.74 138.035V134.56L90.8828 134.56V138.035ZM135.477 144.985L90.8828 144.985V141.51L135.477 141.51V144.985ZM90.8828 152.514L137.215 152.514V149.039L90.8828 149.039V152.514Z" fill="#2A2D82"/>
</svg>
