<svg width="220" height="220" viewBox="0 0 220 220" fill="none" xmlns="http://www.w3.org/2000/svg">
<path d="M167.046 65.4931C168.07 60.7199 167.549 57.3107 165.591 55.4184C163.673 53.5641 160.11 53.2225 155.427 54.3537C150.745 55.4849 144.905 58.1592 138.315 62.1453C125.133 70.1022 109.07 83.2119 93.2477 99.5808C77.4254 115.95 64.8686 132.449 57.3638 145.893C53.6341 152.583 51.1824 158.486 50.1576 163.26C49.1328 168.033 49.6547 171.442 51.6124 173.334C53.57 175.227 56.9871 175.625 61.7306 174.446" stroke="#2A2D82" stroke-width="3.28039" stroke-linejoin="round"/>
<path d="M167.046 65.4932C166.075 69.5568 164.637 73.4944 162.76 77.2275V77.2275C161.894 79.0362 160.913 80.932 159.817 82.8839C159.307 83.7896 158.138 85.5648 158.138 85.5648L146.901 89.6067L85.1395 153.502L81.4814 164.87C81.4814 164.87 79.7469 166.098 78.859 166.639C76.9303 167.816 75.0841 168.845 73.3057 169.772C69.6385 171.774 65.752 173.345 61.7237 174.454C56.9802 175.633 53.5631 175.235 51.6055 173.342L70.4745 191.581C72.4322 193.474 75.8571 193.879 80.5928 192.693C85.3285 191.507 91.1373 188.849 97.7053 184.902C98.8995 184.185 100.124 183.407 101.355 182.605L112.723 178.553L172.821 116.379L176.477 104.888C177.244 103.622 177.981 102.372 178.656 101.154C182.408 94.4247 184.844 88.4598 185.862 83.7872C186.881 79.1146 186.365 75.6048 184.408 73.7125L165.538 55.4735C167.549 57.3108 168.063 60.7123 167.046 65.4932Z" stroke="#2A2D82" stroke-width="3.28039" stroke-linejoin="round"/>
<path d="M165.078 112.118L108.248 170.911L93.8633 158.527L152.213 98.1621L165.078 112.118Z" stroke="#2A2D82" stroke-width="3.28039" stroke-linejoin="round"/>
<path d="M164.999 72C164.999 72 156.499 61.7768 107.276 111C57.2753 161 66.4992 172.5 66.4992 172.5" stroke="#2A2D82" stroke-width="3.28039" stroke-linejoin="round"/>
<path fill-rule="evenodd" clip-rule="evenodd" d="M93.5519 57.2202L97.1645 57.1589L97.1221 54.6662L93.8708 54.7214C93.0399 54.7355 92.9315 54.7374 92.9144 53.7259L92.7678 45.0919V45.0918C92.7408 43.5024 92.7408 43.5024 94.2942 43.476C94.4978 43.5099 94.7059 43.5063 94.9083 43.4656C95.1878 43.3982 95.4307 43.2258 95.5867 42.9843C95.7259 42.7548 95.7966 42.4902 95.7906 42.2219C95.7978 41.9463 95.7033 41.6777 95.5248 41.4675C95.3683 41.2472 95.1327 41.0958 94.8672 41.0451C94.0884 40.8045 93.2532 40.8187 92.4829 41.0856C91.7268 41.3737 91.0788 41.8898 90.6289 42.5625C90.5612 42.7046 90.449 42.8206 90.3093 42.8931C90.1457 42.9485 89.969 42.9515 89.8036 42.9017C88.9336 42.8078 88.0862 42.5656 87.298 42.1854C86.511 41.7876 85.8131 41.234 85.2468 40.558C85.0433 40.3207 84.841 40.0821 84.6394 39.8441L84.6393 39.844C83.7816 38.832 82.9343 37.8321 82.0425 36.9988C81.187 36.0048 80.1254 35.209 78.9313 34.6667C77.7924 34.1552 76.5535 33.9046 75.3053 33.9332L62.011 34.1589C61.506 34.1545 61.0057 34.2559 60.5423 34.4567C60.0789 34.6575 59.6627 34.9533 59.3206 35.3248C58.9636 35.6891 58.6878 36.1248 58.5112 36.6034C58.3196 37.0746 58.2297 37.581 58.2474 38.0894C58.2555 38.5925 58.3626 39.0889 58.5626 39.5506C58.7627 40.0122 59.0517 40.43 59.4132 40.7798C59.7779 41.1385 60.2101 41.4212 60.6847 41.6116C61.1594 41.802 61.6671 41.8963 62.1785 41.8892L67.1276 41.8051L67.7779 41.7941C68.0543 41.6797 68.2813 41.4711 68.4184 41.2051C68.5072 40.9221 68.5021 40.6179 68.4036 40.338C68.3222 40.0456 68.1384 39.7923 67.8856 39.6242C67.6488 39.4391 67.3493 39.3534 67.0504 39.3854L61.8845 39.4731C61.6026 39.5024 61.3195 39.4303 61.086 39.2699C60.8399 39.1351 60.6456 38.9222 60.5337 38.6649C60.1198 37.6962 60.7553 36.8182 61.9113 36.7986L74.6998 36.5815C75.7096 36.5335 76.7163 36.727 77.6364 37.1459C78.5457 37.5418 79.3485 38.1473 79.9791 38.9129C80.5634 39.5528 81.1174 40.1933 81.6622 40.8232L81.6623 40.8233L81.6623 40.8233C82.1475 41.3843 82.6254 41.9369 83.1111 42.4733C83.8942 43.4104 84.868 44.17 85.9676 44.7014C87.092 45.2781 88.3332 45.5906 89.5967 45.6154C90.0302 45.6081 90.1055 45.7875 90.1122 46.1849L90.2202 52.543V52.5431C90.227 52.9404 90.2288 53.0487 89.6869 53.0579L85.6409 53.1266C84.501 53.1507 83.3677 52.9489 82.3062 52.5328C81.2528 52.1177 80.2865 51.5091 79.4572 50.7383L72.8846 44.5983C72.1865 43.9236 72.0659 43.2029 72.5624 42.6524C73.059 42.102 73.7466 42.1626 74.441 42.6205L79.5036 47.0877L79.9426 47.4055C80.1222 47.4366 80.3061 47.4335 80.4845 47.3963C80.6517 47.4308 80.8244 47.4279 80.9903 47.3877C81.1615 47.3195 81.3098 47.2043 81.4182 47.0552C81.5531 46.9399 81.6511 46.7875 81.6999 46.6168C81.7319 46.4373 81.7288 46.2532 81.6907 46.0749C81.724 45.9076 81.7211 45.7352 81.6821 45.5692C81.5788 45.4218 81.4549 45.29 81.3141 45.1779L75.9576 40.4266C75.5043 39.9701 74.9374 39.6429 74.3154 39.4788C73.7194 39.3449 73.1001 39.3554 72.5091 39.5095C71.8637 39.7004 71.2743 40.0452 70.7916 40.5143C70.311 40.9835 69.9707 41.5775 69.8089 42.2294C69.6409 42.8704 69.6523 43.5453 69.8421 44.1802C70.0388 44.8205 70.3971 45.3993 70.8824 45.8609C72.3957 47.3237 73.9242 48.7384 75.4581 50.1582L75.4581 50.1582C76.233 50.8754 77.0092 51.5939 77.7856 52.3205C79.7603 54.1842 82.3501 55.2588 85.0641 55.3408L90.0134 55.2567C90.1646 55.2018 90.3299 55.199 90.483 55.2487C90.6465 55.3154 90.7782 55.4427 90.8504 55.6039C91.1173 56.0626 91.5131 56.4328 91.9887 56.6686C92.451 56.989 92.9909 57.1796 93.5519 57.2202ZM38.8671 69.3508C38.6912 63.237 40.2148 57.1942 43.2684 51.8946C45.9199 47.366 50.0056 43.8506 54.8791 41.9045C55.402 41.6772 55.9652 41.5571 56.5354 41.5512C56.9805 41.5656 57.406 41.7377 57.7361 42.0368C58.0806 42.3126 58.3071 42.7093 58.3693 43.1462C58.4416 43.5716 58.3593 44.0088 58.1372 44.3788C57.9029 44.7213 57.5656 44.9802 57.1741 45.1179C54.9944 46.001 52.9858 47.258 51.2386 48.8323C47.5511 52.2267 45.023 56.6938 44.0114 61.6026C42.1899 69.0971 42.9346 76.9859 46.1263 84.0072C47.6089 87.5961 50.1534 90.6459 53.4185 92.7478C56.6836 94.8496 60.5133 95.9029 64.394 95.7664C67.1944 95.9325 69.9976 95.4904 72.611 94.4705C75.2226 93.4522 77.5772 91.8699 79.5066 89.8364C82.5268 86.6092 84.4328 82.4986 84.9447 78.1083C84.975 77.557 85.2112 77.0372 85.6065 76.6516C85.8056 76.4588 86.0422 76.3088 86.3016 76.2112C86.5611 76.1135 86.8377 76.0703 87.1146 76.084C88.668 76.0576 89.3324 76.8775 89.1053 78.399C88.5755 82.8794 86.8364 87.1312 84.0744 90.6985C80.745 94.9498 75.973 97.8335 70.661 98.8038C65.4315 99.9794 59.972 99.5947 54.9591 97.6972C52.0256 96.5325 49.3629 94.7769 47.1367 92.5395C44.9105 90.302 43.1684 87.6305 42.0184 84.6912C40.0151 79.8376 38.9933 74.6351 39.0122 69.3844L38.8671 69.3508ZM70.8926 65.6273C71.4216 65.8713 71.9042 66.2055 72.3187 66.6149C72.8843 67.1791 73.3371 67.8459 73.6529 68.5797C73.9149 69.3197 74.0385 70.1016 74.0174 70.8863C73.9271 72.0844 73.4073 73.2096 72.5535 74.0549L72.1267 74.4597C71.4623 75.0043 70.7818 75.56 70.0956 76.1203C69.0148 77.0029 67.9199 77.897 66.8518 78.7772L66.1392 79.3675C65.2483 80.1053 64.9232 80.1108 64.0078 79.4036L63.2754 78.8379L57.9299 74.7369C57.7557 74.6272 57.5956 74.4965 57.4535 74.3475C56.9436 73.8569 56.5294 73.2757 56.2319 72.6337C55.9357 71.9895 55.7762 71.2908 55.7635 70.5818C55.7489 69.8726 55.8847 69.1684 56.162 68.5154C56.4375 67.8636 56.8318 67.2687 57.3247 66.7611C57.7723 66.3545 58.2781 66.0171 58.8254 65.76C59.2914 65.5353 59.2859 65.2101 59.2797 64.8489C59.2278 64.136 59.3265 63.4202 59.5693 62.748C59.8081 62.0757 60.1927 61.4646 60.6953 60.9582C61.3378 60.3053 62.1392 59.8309 63.0207 59.5817C64.0122 59.3125 65.0552 59.2948 66.0553 59.5302C67.0726 59.7514 68.0148 60.2335 68.7892 60.9292C69.1182 61.1403 69.3851 61.4351 69.5626 61.7833C70.131 62.6725 70.4135 63.7144 70.3721 64.7689C70.3564 64.8769 70.3583 64.9867 70.3776 65.094L70.3825 65.383L70.6036 65.6322C70.6992 65.6511 70.7977 65.6495 70.8926 65.6273ZM61.1307 63.1913C60.9327 63.648 60.8422 64.144 60.8662 64.6412C60.8001 65.0037 60.8001 65.0037 61.2716 65.1041C61.8479 65.0758 62.4241 65.1618 62.967 65.3573C63.5099 65.5527 64.0087 65.8537 64.4347 66.2428C64.6545 66.4198 64.8003 66.4896 65.0127 66.233C65.8276 65.4575 66.9025 65.0141 68.027 64.9894C68.5683 64.9441 68.564 64.6912 68.5579 64.33V64.3299C68.5213 63.8535 68.3906 63.3889 68.1733 62.9633C67.9777 62.5245 67.6872 62.1345 67.3228 61.8214C66.9663 61.5082 66.5587 61.2585 66.1178 61.083C65.6622 60.9378 65.1822 60.8846 64.7058 60.9263C64.2047 60.9035 63.7036 60.9732 63.2277 61.1321C62.7585 61.314 62.3324 61.5921 61.9768 61.9483C61.5913 62.2819 61.2997 62.7103 61.1307 63.1913ZM65.2347 77.1786L70.722 72.6045L70.9749 72.6002C71.2685 72.3445 71.5088 72.0334 71.682 71.6848C71.8318 71.3413 71.9115 70.9714 71.9165 70.5967C71.9182 69.9246 71.7045 69.2696 71.3066 68.7279C70.8879 68.1956 70.3066 67.8148 69.6513 67.6432C68.9961 67.4717 68.3028 67.5189 67.6769 67.7778C67.0433 68.0777 66.5297 68.5832 66.2196 69.2119C66.132 69.4829 65.96 69.7189 65.7288 69.8853C65.4976 70.0517 65.2193 70.1399 64.9345 70.1371C64.4281 70.1095 64.1679 69.6803 63.9438 69.2505C63.6278 68.6538 63.1197 68.1811 62.5018 67.9091C61.8838 67.637 61.1921 67.5816 60.5386 67.7515C59.8852 67.9215 59.3082 68.307 58.9011 68.8456C58.494 69.3843 58.2805 70.0446 58.2953 70.7196C58.3043 71.1659 58.4093 71.6049 58.6032 72.0069C58.7971 72.409 59.0753 72.7645 59.419 73.0493L64.8735 77.1847L65.2347 77.1786Z" fill="#2A2D82"/>
</svg>
