<svg width="100" height="138" viewBox="0 0 100 138" fill="none" xmlns="http://www.w3.org/2000/svg">
<g opacity="0.3" clip-path="url(#clip0_217_1004)">
<path d="M50.5113 93.7002C44.4881 93.614 39.2052 93.5899 33.9249 93.4494C28.9048 93.3158 23.8865 93.0719 18.869 92.8556C17.1351 92.7806 15.3968 92.7091 13.6732 92.5204C8.76948 91.9835 5.04128 89.5902 2.6239 85.2622C1.65046 83.5148 1.09363 81.5661 0.996801 79.5682C0.800308 75.871 0.63484 72.173 0.46851 68.475C0.0238157 58.6503 -0.0744308 48.8196 0.05915 38.9872C0.118615 34.6532 0.257368 30.32 0.41077 25.9885C0.53918 22.3465 0.741704 18.7071 0.912343 15.0659C1.03817 12.4029 1.66471 9.88731 3.10393 7.60868C4.45333 5.44802 6.38027 3.70794 8.66692 2.58519C10.668 1.58979 12.7984 1.18905 15.015 1.09339C19.9179 0.883108 24.8181 0.596124 29.7218 0.414282C37.5247 0.125575 45.331 -0.0398936 53.1407 0.0144005C56.8577 0.039393 60.5764 0.0480109 64.2917 0.148843C68.8825 0.274667 73.4708 0.465131 78.0583 0.674551C80.7523 0.79779 83.4506 0.924473 86.1317 1.20456C90.0202 1.61047 93.2632 3.33065 95.7245 6.40904C97.6852 8.8609 98.6418 11.6997 98.8201 14.8143C99.1011 19.7128 99.3924 24.6105 99.6397 29.5108C99.7526 31.7463 99.8069 33.987 99.8259 36.2251C99.875 42.0527 99.9586 47.8803 99.8957 53.707C99.844 58.4556 99.613 63.2024 99.4346 67.9493C99.3415 70.4296 99.2149 72.9084 99.0546 75.3858C98.9331 77.2594 98.8391 79.1442 98.5461 80.9945C98.048 84.1487 96.5536 86.8186 94.1965 88.9844C92.6377 90.4111 90.7687 91.4561 88.737 92.0369C87.0995 92.5178 85.4112 92.616 83.7195 92.6945C80.38 92.8496 77.0413 93.0392 73.7018 93.1874C71.7524 93.2759 69.8018 93.3405 67.8501 93.3813C61.826 93.4994 55.7985 93.6028 50.5113 93.7002ZM9.48909 38.5443C10.5121 37.6101 11.666 37.3377 12.8631 37.2515C14.6229 37.1292 16.3862 37.0559 18.1494 36.993C21.779 36.8696 25.4128 37.0249 29.0186 37.4575C31.4648 37.7445 33.8907 38.1843 36.2819 38.7744C39.643 39.6008 42.8946 40.71 46.0204 42.188C49.5206 43.8369 52.7835 45.9482 55.7218 48.4654C58.453 50.8116 60.7735 53.597 62.5879 56.7069C63.8206 58.8065 64.8177 61.0357 65.5611 63.3541C66.1955 65.2858 66.6247 67.279 66.8418 69.3006C67.0822 71.6749 67.0702 74.0526 66.6763 76.42C66.4094 78.0303 65.9821 79.6098 65.4008 81.135C64.9122 82.4148 64.0616 83.4696 63.1162 84.4297C62.001 85.5612 60.8169 86.623 59.6689 87.7201C59.5924 87.8137 59.5284 87.9168 59.4785 88.0269C59.5879 88.083 59.7036 88.1261 59.8232 88.1553C59.9945 88.1803 60.1682 88.1832 60.3403 88.1639C62.0156 87.9545 63.7125 87.8433 65.3612 87.5012C67.9259 86.9686 70.258 85.8474 72.3574 84.2651C75.503 81.8934 77.754 78.7952 79.5199 75.3272C80.3231 73.7493 81.0479 72.1239 81.6968 70.4761C82.3733 68.762 82.9585 67.009 83.5066 65.2475C84.0771 63.4041 84.5658 61.5339 85.063 59.669C85.5121 57.9824 85.9318 56.2881 86.3497 54.5938C86.8737 52.4685 87.3839 50.3382 87.901 48.2121C88.4181 46.086 89.0214 43.9754 89.4523 41.8347C90.0314 38.9304 90.5416 36.0088 90.9604 33.0778C91.2336 31.1663 91.3482 29.2264 91.4336 27.2942C91.5518 24.5835 91.4116 21.8677 91.0147 19.1837C90.6166 16.4733 90.115 13.7896 88.9653 11.2766C88.0225 9.21596 86.7522 7.44408 84.6563 6.38319C83.0645 5.57653 81.396 5.14563 79.6069 5.24301C76.925 5.38952 74.5645 6.45903 72.3134 7.82069C69.5832 9.47106 67.1606 11.5316 64.7019 13.5457C62.7645 15.1323 60.8453 16.7456 58.8416 18.2477C55.683 20.6186 52.4642 22.9076 49.2651 25.2284C47.944 26.1859 46.6504 27.1856 45.2801 28.0672C44.105 28.8061 42.8894 29.4785 41.639 30.0813C40.1265 30.8285 38.6037 31.5722 37.0291 32.1677C35.3469 32.8037 33.6112 33.307 31.8764 33.7888C30.8948 34.0611 29.8683 34.174 28.86 34.3593L28.8273 34.243C29.5926 33.8362 30.3785 33.4579 31.1197 33.0149C33.2828 31.7282 35.4572 30.4562 37.5747 29.0962C38.7243 28.3577 39.7697 27.4588 40.8547 26.6168C40.9555 26.5384 41.0029 26.3901 41.0753 26.2721L41.0004 26.173C40.61 26.2428 40.2196 26.3703 39.8292 26.372C37.7608 26.3789 35.6985 26.3893 33.6353 26.3315C29.7494 26.2221 25.8635 26.0058 22.0112 26.7814C20.0084 27.1856 18.1331 27.8725 16.4801 29.1083C15.7287 29.6497 15.0693 30.3085 14.5272 31.0594L19.038 31.3792C18.932 32.0996 18.2003 33.0907 17.4643 33.663C17.0463 33.9879 16.6232 33.9991 16.1716 33.8474C15.9007 33.7516 15.6407 33.6273 15.3959 33.4768C14.6203 33.0175 13.868 32.5185 13.0759 32.0902C12.8125 31.9593 12.5097 31.9319 12.2271 32.0135C10.874 32.4866 9.71316 33.3062 8.59453 34.1792C8.392 34.3369 8.24205 34.6385 8.19034 34.8979C8.0378 35.6736 8.27652 36.4078 8.62124 37.093C8.86341 37.5808 9.18401 38.0306 9.49254 38.5425L9.48909 38.5443ZM34.7677 49.0368C34.7264 48.905 34.6919 48.7826 34.6497 48.6628C34.3101 47.6933 34.0533 46.6849 33.6103 45.7654C32.82 44.1279 31.5368 42.9559 29.7753 42.4147C27.2933 41.652 24.7388 41.3443 22.1465 41.3064C19.1914 41.2633 16.2862 41.6701 13.3991 42.2354C13.0329 42.3069 12.9924 42.4939 13.0458 42.8068C13.3043 44.3471 13.5548 45.888 13.7973 47.4295C14.142 49.6496 14.4661 51.8748 14.8315 54.0931C15.0538 55.4484 15.3083 56.7986 15.595 58.1436C15.982 59.9818 16.337 61.8252 16.8464 63.6264C17.3824 65.5388 18.0348 67.4184 18.7105 69.2902C19.5585 71.6378 20.7073 73.8432 22.0328 75.9607C23.2143 77.8498 24.6501 79.5389 26.0678 81.2453C27.1752 82.5794 28.2507 83.9402 29.7442 84.8882C31.3231 85.8887 32.9898 86.679 34.866 86.854C36.7422 87.0289 38.6433 87.1254 40.535 87.1944C43.6479 87.3073 46.7573 87.2866 49.8477 86.7893C52.2418 86.4041 54.5437 85.7655 56.6319 84.4926C59.5758 82.6992 61.4434 80.1379 62.0613 76.726C62.3974 74.8653 62.3405 72.9926 62.1708 71.1104C61.9744 68.9276 61.551 66.7711 60.9073 64.6761C60.2804 62.6225 59.4636 60.6318 58.4676 58.7296C56.9034 55.7486 54.9643 53.0632 52.3651 50.8957C50.108 49.0144 47.5536 47.7226 44.6131 47.3847C43.079 47.2124 41.5192 47.2287 39.9714 47.2072C38.9495 47.1862 37.9375 47.4108 37.0205 47.8622C36.2776 48.2284 35.5554 48.6275 34.7677 49.0368ZM43.2256 22.1862C43.0532 21.9018 42.9817 21.7252 42.8602 21.5967C41.4873 20.142 40.1653 18.633 38.7174 17.2567C34.9953 13.7232 31.0568 10.4423 26.6176 7.82328C25.0051 6.87528 23.3582 5.97469 21.4855 5.59377C19.3801 5.16286 17.3178 5.28524 15.3141 6.05225C13.9791 6.56417 12.7623 7.27516 11.8668 8.44723C10.6224 10.0847 10.0027 11.991 9.61578 13.9628C9.31536 15.4937 9.11813 17.0429 9.02543 18.6002C8.84359 21.6795 9.21848 24.6941 10.4043 27.5743C10.6241 28.1077 10.7706 28.162 11.2791 27.8483C11.8884 27.4726 12.4908 27.0873 13.0889 26.6995C14.8901 25.5361 16.7723 24.5493 18.8734 24.0417C21.183 23.4841 23.5271 23.2557 25.9023 23.2032C30.5173 23.0989 35.1461 23.5591 39.7438 22.8627C40.8745 22.6921 41.988 22.4293 43.2256 22.1862Z" fill="#191919"/>
<path d="M10.7695 137.114C10.8893 136.438 11.01 135.796 11.1143 135.151C11.571 132.352 12.0476 129.555 12.4699 126.751C12.8853 123.989 13.2567 121.219 13.6221 118.449C14.0134 115.481 14.3891 112.509 14.7494 109.536C15.082 106.833 15.388 104.127 15.7198 101.424C15.8387 100.458 16.0068 99.4971 16.1369 98.5319C16.1688 98.2975 16.2679 98.2199 16.498 98.2208C17.9918 98.2277 19.4856 98.2277 20.9794 98.2208C21.2035 98.2208 21.3052 98.2949 21.3698 98.5121C21.9202 100.362 22.4784 102.21 23.0443 104.055C23.57 105.779 24.1095 107.502 24.6326 109.226C25.2514 111.267 25.8547 113.313 26.4735 115.354C27.0922 117.394 27.736 119.43 28.3479 121.472C29.0572 123.845 29.744 126.224 30.4421 128.6C30.4766 128.678 30.5169 128.754 30.5628 128.825C30.7196 128.36 30.8523 127.964 30.9868 127.569C31.9279 124.791 32.869 122.014 33.8101 119.237C34.6104 116.881 35.4148 114.526 36.2231 112.17C36.9307 110.114 37.6563 108.064 38.3639 106.009C39.0766 103.941 39.7772 101.865 40.4839 99.7944C40.5348 99.6454 40.5968 99.5006 40.6563 99.3532C40.7925 98.9921 40.8287 98.4733 41.0872 98.3104C41.3906 98.1199 41.8878 98.2285 42.3015 98.2242C43.8657 98.2191 45.4307 98.2346 46.9949 98.213C47.3724 98.2078 47.4637 98.3268 47.4999 98.6931C47.7783 101.56 48.0886 104.426 48.3816 107.292C48.6039 109.46 48.8073 111.63 49.034 113.796C49.2735 116.078 49.5407 118.356 49.7786 120.637C50.0026 122.792 50.1948 124.946 50.418 127.101C50.6559 129.397 50.9161 131.69 51.1583 133.985C51.2686 135.024 51.3574 136.066 51.46 137.144H43.8588C43.1866 126.836 42.5158 116.554 41.8465 106.299L41.7379 106.275C41.5888 106.717 41.4328 107.158 41.2923 107.602C40.7528 109.294 40.2188 110.986 39.6902 112.679C39.1731 114.315 38.656 115.953 38.1389 117.591C37.6089 119.268 37.0737 120.944 36.5446 122.621C36.0154 124.298 35.5018 125.953 34.9761 127.62C34.4685 129.23 33.9531 130.838 33.4438 132.446C33.0043 133.837 32.5544 135.225 32.1399 136.624C32.0158 137.042 31.8494 137.227 31.3746 137.207C30.1275 137.166 28.8753 137.184 27.6291 137.199C27.3068 137.199 27.1603 137.113 27.0638 136.779C26.539 134.994 25.9805 133.219 25.4384 131.436C24.9213 129.723 24.4043 128.008 23.8872 126.298C23.3701 124.587 22.8202 122.885 22.2971 121.175C21.6775 119.152 21.0751 117.125 20.4554 115.099C19.8358 113.074 19.2093 111.081 18.5913 109.067C18.2595 107.985 17.9432 106.899 17.6158 105.817C17.5616 105.616 17.4645 105.429 17.3314 105.27C17.2452 106.057 17.1504 106.844 17.0823 107.633C16.7922 110.991 16.5069 114.349 16.2265 117.707C15.9835 120.637 15.7611 123.568 15.5138 126.498C15.2785 129.299 15.0208 132.099 14.7778 134.898C14.7244 135.511 14.6839 136.128 14.652 136.743C14.6365 137.054 14.5365 137.193 14.1858 137.18C13.1964 137.142 12.2036 137.147 11.2151 137.133C11.0832 137.137 10.9574 137.124 10.7695 137.114Z" fill="#191919"/>
<path d="M53.0614 135.59C53.5294 133.505 53.9904 131.453 54.4558 129.385C54.8643 129.298 55.0289 129.617 55.2168 129.921C56.157 131.433 57.3713 132.658 58.9596 133.499C60.7531 134.447 62.6508 134.664 64.6329 134.342C66.3617 134.061 67.8734 133.348 68.9851 131.973C70.9673 129.521 70.7639 126.211 68.1009 124.045C66.8262 123.011 65.356 122.353 63.8495 121.753C61.2641 120.724 58.7045 119.623 56.4595 117.966C53.6965 115.927 52.3539 113.111 52.3633 109.668C52.3702 107.241 52.9959 104.997 54.3869 102.993C55.4633 101.441 56.8861 100.301 58.5968 99.5048C61.3089 98.2439 64.1469 98.0397 67.0469 98.5033C69.3177 98.8687 71.4137 99.7418 73.3665 100.962C73.5923 101.103 73.6018 101.221 73.5389 101.446C73.183 102.652 72.8417 103.865 72.4978 105.075C72.4478 105.254 72.4332 105.445 72.3677 105.618C72.3022 105.79 72.2341 106.001 72.1092 106.059C71.8713 106.167 71.6955 106.006 71.5688 105.776C71.0688 104.872 70.4163 104.06 69.6401 103.378C67.8372 101.782 65.7335 101.19 63.354 101.452C61.7597 101.629 60.3377 102.176 59.2552 103.379C57.3024 105.543 57.392 108.442 59.3759 110.605C60.5824 111.915 62.0863 112.738 63.6341 113.52C65.9067 114.668 68.2017 115.778 70.4519 116.962C71.8489 117.695 73.1537 118.563 74.1129 119.881C75.0927 121.23 75.6883 122.7 75.7727 124.363C75.9373 127.613 75.1625 130.56 72.9003 132.999C71.5895 134.412 69.9805 135.37 68.1776 136.029C65.8662 136.875 63.4729 137.15 61.0332 137.05C59.3431 136.981 57.66 136.806 56.0131 136.387C55.1401 136.164 54.2697 135.932 53.3992 135.697C53.2717 135.672 53.1553 135.622 53.0614 135.59Z" fill="#191919"/>
<path d="M95.336 106.063C95.0016 106.16 94.7913 106.122 94.5905 105.778C93.5563 104.012 92.155 102.645 90.2142 101.9C89.18 101.502 88.1036 101.372 87.0048 101.422C85.6664 101.482 84.4022 101.798 83.2706 102.553C80.6326 104.312 79.9328 108.063 82.4493 110.678C83.6498 111.925 85.0994 112.746 86.6084 113.51C88.881 114.658 91.17 115.773 93.4296 116.946C95.0852 117.807 96.5666 118.88 97.5732 120.52C98.2784 121.639 98.6991 122.914 98.7987 124.233C98.9495 126.382 98.6384 128.468 97.699 130.429C96.789 132.33 95.3972 133.8 93.602 134.89C91.5026 136.166 89.199 136.778 86.7687 136.987C84.1428 137.213 81.5565 136.968 78.9977 136.384C78.1359 136.185 77.2845 135.925 76.4218 135.719C76.1227 135.648 76.0624 135.519 76.1322 135.237C76.4545 133.93 76.7734 132.623 77.0716 131.311C77.2138 130.686 77.3086 130.049 77.4275 129.402C77.7585 129.365 77.9644 129.46 78.1506 129.77C79.1141 131.369 80.3732 132.671 82.052 133.537C83.7687 134.423 85.5777 134.65 87.4814 134.377C89.1533 134.136 90.6227 133.497 91.7827 132.257C93.914 129.981 93.9984 126.339 91.1174 124.04C89.8247 123.006 88.338 122.354 86.8213 121.743C84.1764 120.677 81.5487 119.551 79.2692 117.807C77.0811 116.133 75.8142 113.877 75.4884 111.12C75.2118 108.768 75.5686 106.522 76.6183 104.393C77.7179 102.159 79.42 100.56 81.6745 99.5173C84.3324 98.2866 87.1186 98.0858 89.96 98.5141C92.28 98.864 94.4147 99.7568 96.4124 100.99C96.7011 101.168 96.6201 101.351 96.558 101.565C96.2365 102.662 95.9013 103.756 95.5902 104.856C95.4756 105.246 95.4178 105.658 95.336 106.063Z" fill="#191919"/>
<path d="M1.17969 98.324H6.94348C6.84093 99.7692 6.69097 101.15 6.65391 102.532C6.56773 105.731 6.48155 108.931 6.49276 112.13C6.5031 116.536 6.56228 120.941 6.67029 125.346C6.7513 128.658 6.93573 131.968 7.0943 135.278C7.1236 135.889 7.24943 136.494 7.33389 137.127H1.3555C1.43651 136.462 1.55371 135.815 1.58905 135.164C1.99151 127.752 2.00875 120.334 1.85966 112.914C1.79416 109.672 1.70712 106.43 1.5744 103.191C1.50718 101.563 1.31413 99.9399 1.17969 98.324Z" fill="#191919"/>
<path d="M69.4944 71.201C69.4944 70.5607 69.5237 69.9031 69.4892 69.2481C69.3375 66.3593 68.7704 63.5447 67.9009 60.786C66.9387 57.7128 65.7019 54.7324 64.2054 51.8809C62.2534 48.1751 60.2256 44.5038 58.2262 40.8196C57.192 38.9081 56.1199 37.0138 55.1133 35.0868C54.5333 33.9771 54.2136 32.7499 54.1782 31.4982C54.1326 30.1098 54.7255 29.0127 55.5959 27.97C57.6479 25.5138 59.9576 23.3558 62.6283 21.5925C64.2423 20.5132 65.9816 19.634 67.8078 18.9744C66.9512 19.75 65.998 20.5256 65.1431 21.3961C63.4358 23.1447 62.1914 25.188 61.5726 27.5709C61.0865 29.4419 61.1357 31.3103 61.6226 33.1813C62.2879 35.7331 63.1549 38.2169 64.1167 40.6679C64.8923 42.65 65.7541 44.6038 66.5297 46.5885C67.3686 48.7321 68.1775 50.8867 68.9566 53.0521C69.6969 55.1015 70.2079 57.2164 70.5837 59.3623C71.0922 62.2683 71.093 65.1821 70.675 68.0993C70.5587 68.9077 70.4682 69.7187 70.3657 70.5288C70.2915 71.0993 70.0778 71.2915 69.4944 71.201Z" fill="#191919"/>
<path d="M47.3801 58.9004C47.456 59.9466 46.9251 60.5671 46.2296 60.9791C45.5624 61.3646 44.8444 61.6547 44.0966 61.8409C42.4221 62.2718 40.7123 62.5674 39.0412 63.0112C37.7416 63.356 36.5316 63.9368 35.7396 65.1063C35.5199 65.4303 35.3949 65.819 35.2415 66.187C35.1278 66.4645 35.0691 66.7653 34.9425 67.0368C34.8968 67.1341 34.727 67.1747 34.6141 67.2419C34.5814 67.129 34.4978 67.0014 34.5279 66.9066C34.721 66.2499 34.8537 65.557 35.1648 64.9572C35.7776 63.7731 35.8758 62.5441 35.6543 61.2799C35.4466 60.0983 35.1278 58.9366 34.889 57.7594C34.5908 56.2943 34.415 54.8128 34.7718 53.3262C35.2027 51.5164 36.3231 50.3021 38.0519 49.6471C40.1099 48.8715 42.1886 48.9956 44.2569 49.561C48.6341 50.7546 51.8202 53.4719 54.1333 57.3069C55.4329 59.4614 56.318 61.7754 56.8799 64.2161C57.397 66.449 57.6555 68.719 57.4556 71.0045C57.1617 74.351 56.249 77.4991 54.1376 80.2009C52.5863 82.1831 50.6042 83.3612 48.0454 83.5155C45.4445 83.6714 42.8504 83.6878 40.2943 83.1285C39.111 82.87 37.9183 82.5649 36.8048 82.1004C35.2967 81.4721 34.2091 80.3 33.386 78.8944C33.2886 78.729 33.2456 78.5307 33.1421 78.2515C34.6779 78.966 36.205 79.1133 37.7795 79.0685C39.367 79.028 40.8398 78.6833 42.2791 77.7577C42.0834 77.6836 42.0119 77.6457 41.9343 77.6284C41.2544 77.4733 40.5778 77.3001 39.8918 77.176C39.479 77.1019 39.043 77.0364 38.6327 77.0898C37.1194 77.2846 35.6095 77.4811 34.122 76.9666C33.1792 76.6408 32.3182 76.1745 31.9839 75.1464C31.7012 74.276 31.7891 73.3978 32.0442 72.5239C32.6207 70.5452 34.5607 69.5481 36.4187 69.5981C37.571 69.6265 38.6336 69.9075 39.5307 70.6512C40.1797 71.1898 40.4417 71.9439 40.6011 72.748C40.6503 72.9102 40.7565 73.0492 40.9002 73.1392C41.138 73.2926 41.4285 73.365 41.6611 73.5245C42.2136 73.9011 42.2972 74.4139 41.9335 74.9749C41.899 75.0377 41.8595 75.0977 41.8154 75.1542C41.3087 75.7118 41.3518 75.7988 42.1274 76.1677C43.4856 76.8149 44.9377 76.8132 46.3865 76.6615C47.2224 76.5753 48.0696 76.4495 48.8702 76.2047C50.3525 75.7505 51.3539 74.7396 51.921 73.2858C52.6734 71.3648 53.0836 69.3774 52.913 67.3177C52.8064 66.2209 52.6118 65.1344 52.3312 64.0687C51.7642 61.8047 50.8196 59.6898 49.5924 57.7068C48.2781 55.5842 46.7484 53.6468 44.5732 52.3325C43.0952 51.4388 41.5181 51.0088 39.8134 51.6146C38.6379 52.0326 37.5943 52.6368 37.147 53.9105C36.7893 54.9266 36.9074 55.9073 37.3831 56.8622C38.5664 59.2365 40.5554 60.362 43.1331 60.4904C43.9251 60.5301 44.7611 60.5042 45.5126 60.2862C46.059 60.1268 46.5002 59.6036 46.9863 59.2391C47.0957 59.1572 47.1914 59.0616 47.3801 58.9004Z" fill="#191919"/>
</g>
<defs>
<clipPath id="clip0_217_1004">
<rect width="99.921" height="137.206" fill="white"/>
</clipPath>
</defs>
</svg>
