<svg width="195" height="40" viewBox="0 0 195 40" fill="none" xmlns="http://www.w3.org/2000/svg">
<path d="M116.2 14.3253V38.0092C116.2 38.5979 116.242 38.484 115.682 38.5077C115.122 38.5314 114.415 38.5077 113.783 38.5077C113.551 38.5077 113.47 38.4365 113.503 38.2181C113.508 38.1739 113.508 38.1294 113.503 38.0852C113.503 28.9958 113.503 19.9065 113.503 10.8171C113.503 10.4611 113.598 10.3899 113.93 10.3994C114.984 10.3994 116.038 10.3994 117.092 10.3994C117.197 10.3857 117.303 10.411 117.391 10.4705C117.478 10.53 117.541 10.6196 117.567 10.7222C120.703 18.6722 123.843 26.6143 126.985 34.5485L127.142 34.914C127.256 34.7769 127.334 34.6138 127.37 34.4393C130.484 26.5273 133.592 18.6152 136.693 10.7032C136.723 10.5946 136.791 10.5001 136.884 10.4366C136.977 10.3731 137.089 10.3448 137.201 10.3567C138.279 10.3567 139.357 10.3567 140.429 10.3567C140.681 10.3567 140.781 10.4041 140.781 10.689C140.781 19.8321 140.781 28.9768 140.781 38.1232C140.781 38.3843 140.729 38.4745 140.448 38.4697C139.76 38.4697 139.067 38.4697 138.379 38.4697C138.175 38.4697 138.08 38.4175 138.103 38.2039C138.111 38.1249 138.111 38.0455 138.103 37.9665V14.2304C137.951 14.2969 137.942 14.4155 137.909 14.5105C135.956 19.4602 134.007 24.3989 132.06 29.3266C130.888 32.3031 129.687 35.2701 128.538 38.2466C128.518 38.3388 128.464 38.4198 128.386 38.4729C128.308 38.526 128.213 38.5469 128.12 38.5314C127.512 38.5314 126.9 38.5077 126.288 38.5314C126.169 38.5516 126.047 38.5261 125.947 38.4601C125.846 38.394 125.775 38.2922 125.746 38.1754C123.037 31.3267 120.319 24.4765 117.591 17.6247L116.28 14.3016L116.2 14.3253Z" fill="#12A19A"/>
<path d="M168.828 24.4274C168.828 19.8795 168.828 15.3317 168.828 10.7839C168.828 10.4943 168.885 10.4041 169.194 10.4041C172.322 10.4041 175.446 10.3661 178.574 10.4041C181.029 10.3743 183.454 10.9499 185.633 12.0799C187.296 12.9838 188.669 14.34 189.592 15.9916C190.398 17.4674 190.935 19.0748 191.178 20.7388C191.317 21.4859 191.391 22.2434 191.401 23.0032C191.401 23.5681 191.491 24.1236 191.472 24.6885C191.462 26.7811 191.142 28.8607 190.523 30.8599C189.928 32.6991 188.841 34.3407 187.38 35.6071C185.939 36.8124 184.221 37.6425 182.381 38.0234C181.496 38.2276 180.596 38.3657 179.69 38.4364C178.327 38.5361 176.96 38.4744 175.593 38.4839C173.466 38.4839 171.32 38.4839 169.208 38.4839C168.914 38.4839 168.833 38.4174 168.833 38.1136C168.833 33.5658 168.831 29.0037 168.828 24.4274ZM171.52 24.4606C171.52 28.2584 171.52 32.0562 171.52 35.8539C171.52 36.1103 171.572 36.2052 171.852 36.2005C173.751 36.2005 175.65 36.2005 177.549 36.2005C178.516 36.2108 179.483 36.1426 180.44 35.9964C181.574 35.8284 182.68 35.5091 183.73 35.0469C185.301 34.3385 186.586 33.1164 187.371 31.5814C188.262 29.7335 188.724 27.7084 188.724 25.6569C188.769 24.6062 188.755 23.5538 188.681 22.5048C188.6 21.3079 188.388 20.1236 188.05 18.9728C187.718 17.7687 187.106 16.6599 186.265 15.7368C185.423 14.8137 184.376 14.1024 183.207 13.6607C181.569 13.0631 179.839 12.7562 178.095 12.754C176.058 12.697 174.017 12.754 171.98 12.754C171.468 12.754 171.506 12.6828 171.506 13.1955L171.52 24.4606Z" fill="#12A19A"/>
<path d="M81.8867 17.4584V17.0929C81.8867 12.1463 81.8867 7.19967 81.8867 2.25306C81.875 2.02663 81.904 1.79993 81.9722 1.5837C82.0121 1.42334 82.0989 1.27851 82.2215 1.16774C82.3441 1.05696 82.497 0.985263 82.6605 0.961819C82.8415 0.927093 83.0287 0.947437 83.1979 1.02022C83.3672 1.093 83.5107 1.21487 83.61 1.37008C83.8021 1.69207 83.8946 2.06373 83.8758 2.43821C83.8758 7.06517 83.8758 11.6953 83.8758 16.3286V37.0075C83.8852 37.2447 83.8564 37.482 83.7904 37.7101C83.746 37.9055 83.6361 38.0799 83.4789 38.2042C83.3218 38.3285 83.1268 38.3954 82.9264 38.3937C82.7192 38.4127 82.5117 38.3599 82.3388 38.244C82.166 38.1282 82.0382 37.9564 81.9769 37.7575C81.9043 37.5341 81.8737 37.2991 81.8867 37.0644C81.8867 35.7067 81.8867 34.349 81.8867 32.9866V32.6495C81.7158 32.7112 81.6921 32.8584 81.6304 32.9628C80.7868 34.5997 79.5784 36.0209 78.0985 37.1167C76.3862 38.3023 74.3651 38.9623 72.2831 39.0156C70.3244 39.1691 68.3577 38.8433 66.5532 38.0661C64.2287 36.9906 62.3804 35.0984 61.3598 32.7492C60.354 30.509 59.8254 28.084 59.8074 25.6284C59.6807 23.0237 60.0961 20.4211 61.0275 17.9854C62.2475 14.9566 64.2508 12.659 67.3935 11.5814C70.9444 10.3661 74.4336 10.5132 77.7282 12.4596C79.5663 13.527 80.9698 15.2077 81.6921 17.2068C81.7253 17.2923 81.7538 17.3777 81.7918 17.4584C81.8298 17.5391 81.844 17.4584 81.8867 17.4584ZM61.825 24.7644C61.7774 26.8044 62.1139 28.8351 62.8172 30.7506C64.3078 34.5911 66.9615 36.9505 71.2055 37.2448C72.9261 37.3998 74.6559 37.071 76.1996 36.2954C78.1736 35.2564 79.7109 33.5456 80.5338 31.4722C82.1586 27.67 82.3126 23.3996 80.9658 19.4902C80.3886 17.5705 79.2633 15.8612 77.7282 14.5721C76.0049 13.1781 73.8274 12.4697 71.6138 12.583C67.8729 12.6542 65.1006 14.3015 63.3868 17.6436C62.321 19.8639 61.7863 22.3018 61.825 24.7644Z" fill="#2B2E83"/>
<path d="M47.4773 32.6498C47.4156 32.6498 47.4014 32.6877 47.3872 32.7305C46.2858 35.6927 44.1211 37.5394 41.173 38.4794C38.6077 39.3106 35.8351 39.2385 33.3164 38.2752C30.7576 37.3258 29.3097 35.3652 28.6261 32.7827C28.3095 31.5546 28.15 30.2912 28.1514 29.0229C28.1514 25.8423 28.1514 22.6616 28.1514 19.481C28.1514 19.2151 28.0849 19.1439 27.8191 19.1534C27.2399 19.1534 26.6655 19.1534 26.0864 19.1534C25.8357 19.164 25.5869 19.106 25.3669 18.9855C25.1469 18.865 24.9639 18.6867 24.8378 18.4698C24.8 18.3976 24.7412 18.3386 24.6692 18.3004C24.5972 18.2623 24.5153 18.2469 24.4343 18.2562C23.651 18.2562 22.8677 18.2942 22.0892 18.2562C20.8102 18.1954 19.5992 17.6627 18.6902 16.7608C17.6126 15.7212 16.5207 14.7053 15.4621 13.6514C15.2328 13.4296 15.0675 13.1501 14.9836 12.8423C14.8997 12.5345 14.9003 12.2097 14.9853 11.9022C15.0703 11.5947 15.2366 11.3158 15.4667 11.0948C15.6968 10.8739 15.9822 10.7189 16.2928 10.6464C16.5731 10.5689 16.8686 10.5644 17.1511 10.6334C17.4337 10.7024 17.6938 10.8425 17.9069 11.0404C18.7472 11.7952 19.5827 12.5643 20.4087 13.3333C20.4772 13.3847 20.5339 13.45 20.5752 13.525C20.6165 13.6 20.6413 13.6829 20.648 13.7682C20.6548 13.8536 20.6432 13.9393 20.6143 14.0199C20.5853 14.1004 20.5395 14.1738 20.4799 14.2353C20.4221 14.2979 20.352 14.3478 20.274 14.3819C20.196 14.4161 20.1117 14.4337 20.0265 14.4337C19.9414 14.4337 19.8571 14.4161 19.7791 14.3819C19.7011 14.3478 19.631 14.2979 19.5732 14.2353L17.1996 12.0611C16.872 11.7667 16.5397 11.7478 16.3023 12.0041C16.065 12.2605 16.1077 12.5975 16.44 12.9203C17.4686 13.9077 18.4956 14.8983 19.521 15.8921C19.9037 16.2705 20.3573 16.5697 20.8559 16.7725C21.3544 16.9754 21.888 17.0778 22.4263 17.0741C23.0719 17.0741 23.7175 17.0741 24.3631 17.0741C24.5578 17.0741 24.61 17.0267 24.61 16.832C24.61 15.8256 24.61 14.8176 24.61 13.808C24.61 13.6324 24.572 13.5612 24.3726 13.5422C23.795 13.5044 23.2315 13.3474 22.7176 13.081C22.2037 12.8146 21.7505 12.4447 21.3866 11.9946C20.9119 11.4154 20.4372 10.8315 19.9292 10.2524C19.632 9.8793 19.2522 9.58044 18.8196 9.37941C18.3871 9.17838 17.9137 9.08069 17.4369 9.09405C15.4099 9.09405 13.3828 9.09405 11.3557 9.09405C10.8145 9.09405 10.4965 9.51181 10.6816 9.96279C10.7321 10.0898 10.8222 10.1972 10.9385 10.269C11.0547 10.3408 11.1911 10.3733 11.3272 10.3616H13.7768C13.9219 10.3523 14.0656 10.3949 14.1822 10.4819C14.2988 10.5689 14.3805 10.6945 14.4129 10.8363C14.4397 10.9767 14.4157 11.122 14.3453 11.2463C14.2749 11.3706 14.1626 11.4659 14.0284 11.5151C13.9308 11.5405 13.8301 11.5517 13.7293 11.5484C12.8986 11.5484 12.0726 11.5484 11.2465 11.5484C10.7601 11.5446 10.2947 11.3491 9.95162 11.0042C9.60851 10.6593 9.41535 10.1929 9.41412 9.70644C9.41223 9.46546 9.45815 9.22649 9.54922 9.00336C9.64028 8.78024 9.77469 8.57738 9.94465 8.40653C10.1146 8.23568 10.3168 8.10023 10.5394 8.00801C10.7621 7.91579 11.0008 7.86864 11.2418 7.86927H17.5604C18.1786 7.86438 18.79 7.99833 19.3495 8.26125C19.909 8.52417 20.4024 8.90935 20.7932 9.38838C21.3107 9.97229 21.7949 10.5847 22.2933 11.1828C22.5581 11.5081 22.8851 11.7772 23.2552 11.9745C23.6252 12.1717 24.031 12.2932 24.4486 12.3317C24.5236 12.3503 24.6028 12.3425 24.6728 12.3097C24.7428 12.2768 24.7994 12.2209 24.8331 12.1513C25.0539 11.833 25.3703 11.5933 25.7365 11.4669C26.1027 11.3406 26.4996 11.3342 26.8697 11.4487C26.992 11.4816 27.0998 11.5548 27.1755 11.6564C27.2513 11.758 27.2907 11.8821 27.2874 12.0088C27.2974 12.1403 27.2611 12.2711 27.1848 12.3786C27.1085 12.4861 26.997 12.5635 26.8697 12.5975C26.7721 12.6228 26.6713 12.634 26.5706 12.6307C25.8395 12.6307 25.8395 12.6307 25.8395 13.3855C25.8395 14.7575 25.8395 16.1247 25.8395 17.4966C25.8395 17.9096 25.8775 17.9714 26.281 17.9714C26.8222 17.9714 27.3681 17.9714 27.9093 17.9714C28.1229 17.9714 28.1751 17.9144 28.1751 17.7055C28.1751 15.987 28.1751 14.2638 28.1751 12.5453C28.1504 12.3721 28.172 12.1955 28.2379 12.0335C28.3038 11.8714 28.4116 11.7298 28.5502 11.6231C28.6888 11.5164 28.8532 11.4484 29.0267 11.4261C29.2002 11.4038 29.3765 11.4279 29.5376 11.4961C29.6812 11.5327 29.8123 11.6071 29.9175 11.7114C30.0226 11.8157 30.098 11.9463 30.1357 12.0896C30.1887 12.2859 30.2112 12.4893 30.2022 12.6924C30.2022 18.1233 30.2022 23.5557 30.2022 28.9897C30.1773 30.3262 30.3878 31.6568 30.8241 32.9204C31.1461 33.9288 31.7274 34.8349 32.5097 35.5481C33.292 36.2613 34.2479 36.7564 35.2817 36.984C37.4166 37.5379 39.6745 37.371 41.7047 36.5093C44.2208 35.4411 45.7968 33.49 46.7225 30.974C47.2797 29.4047 47.5561 27.7495 47.5391 26.0844C47.5391 21.5887 47.5391 17.0979 47.5391 12.6022C47.5391 11.8522 47.8998 11.4297 48.5455 11.4202C48.773 11.405 48.9979 11.477 49.1742 11.6216C49.3506 11.7662 49.4653 11.9726 49.4949 12.1987C49.5242 12.3776 49.5369 12.5587 49.5329 12.7399C49.5329 20.7975 49.5329 28.8567 49.5329 36.9175C49.5422 37.1876 49.5052 37.4574 49.4237 37.7151C49.3663 37.9183 49.2404 38.0954 49.0674 38.2166C48.8944 38.3377 48.6849 38.3953 48.4743 38.3797C48.2682 38.3806 48.0681 38.3102 47.908 38.1804C47.7479 38.0506 47.6377 37.8694 47.596 37.6676C47.5349 37.4273 47.5093 37.1794 47.5201 36.9318C47.5201 35.5408 47.5201 34.1451 47.5201 32.7542C47.5153 32.7257 47.5343 32.6735 47.4773 32.6498Z" fill="#2B2E83"/>
<path d="M144.983 24.4561C144.983 19.9082 144.983 15.3556 144.983 10.8078C144.983 10.4708 145.078 10.4043 145.396 10.4043C151.605 10.4043 157.812 10.4043 164.015 10.4043C164.356 10.4043 164.432 10.504 164.418 10.8221C164.392 11.3423 164.392 11.8636 164.418 12.3839C164.418 12.6545 164.337 12.7162 164.076 12.7162H150.613C149.74 12.7162 148.866 12.7162 147.997 12.7162C147.741 12.7162 147.675 12.7779 147.675 13.0343C147.675 16.1991 147.675 19.3639 147.675 22.5287C147.675 22.823 147.765 22.88 148.035 22.88C152.988 22.88 157.938 22.88 162.885 22.88C163.393 22.88 163.326 22.8135 163.331 23.3547C163.336 23.8959 163.331 24.3706 163.331 24.8786C163.331 25.1349 163.269 25.2061 163.013 25.2014C161.114 25.2014 159.253 25.2014 157.368 25.2014C154.254 25.2014 151.14 25.2014 148.026 25.2014C147.755 25.2014 147.665 25.2536 147.665 25.5479C147.665 29.0071 147.665 32.4694 147.665 35.9349C147.665 36.2292 147.755 36.2814 148.026 36.2814H164.2C164.537 36.2814 164.617 36.3716 164.603 36.6944C164.575 37.2119 164.58 37.7341 164.603 38.2563C164.603 38.5221 164.537 38.5981 164.266 38.5981C162.011 38.5981 159.761 38.5981 157.506 38.5981C153.452 38.5981 149.398 38.5981 145.344 38.5981C145.04 38.5981 144.969 38.5173 144.969 38.2183C144.981 33.6071 144.986 29.0197 144.983 24.4561Z" fill="#12A19A"/>
<path d="M107.22 33.0961C106.927 33.7186 106.578 34.3129 106.176 34.8715C104.685 36.8355 102.527 38.1862 100.109 38.6693C97.7933 39.2052 95.3783 39.1349 93.0975 38.4652C89.9643 37.5537 88.2316 35.2086 88.1414 31.9187C88.0415 30.4914 88.3113 29.0624 88.9247 27.7697C89.7887 26.1034 91.2129 25.1017 92.9219 24.4466C94.554 23.8627 96.2614 23.5158 97.9919 23.4165C100.127 23.3186 102.252 23.0727 104.353 22.6806C104.716 22.598 105.071 22.4869 105.417 22.3483C105.897 22.1856 106.32 21.8884 106.637 21.4921C106.953 21.0957 107.149 20.6169 107.202 20.1124C107.405 19.1115 107.405 18.0798 107.202 17.0789C106.955 16.1538 106.477 15.3067 105.813 14.6173C105.148 13.928 104.319 13.4191 103.404 13.1387C100.921 12.2254 98.1845 12.2882 95.7465 13.3144C93.4251 14.2638 92.1433 16.101 91.6923 18.5363C91.6306 18.8781 91.5926 19.2294 91.5594 19.5807C91.5444 19.7077 91.5039 19.8303 91.4403 19.9412C91.3767 20.0521 91.2913 20.1491 91.1894 20.2262C91.0874 20.3034 90.9709 20.3591 90.8469 20.3901C90.7228 20.4211 90.5938 20.4268 90.4676 20.4067C90.342 20.4013 90.2188 20.3709 90.105 20.3175C89.9913 20.264 89.8892 20.1885 89.8049 20.0953C89.7206 20.0022 89.6556 19.8932 89.6137 19.7747C89.5718 19.6562 89.5538 19.5305 89.5608 19.4051C89.6164 18.0119 89.9573 16.645 90.5625 15.3889C91.0288 14.4313 91.6931 13.5837 92.5115 12.902C93.3299 12.2203 94.2836 11.7201 95.3097 11.4345C98.351 10.499 101.605 10.5139 104.638 11.4772C107.738 12.4266 109.267 14.6199 109.271 17.867V34.0075C109.272 34.4612 109.323 34.9134 109.423 35.3557C109.487 35.7532 109.703 36.1102 110.025 36.3505C110.348 36.5909 110.752 36.6955 111.151 36.6422C111.555 36.6422 111.963 36.5663 112.362 36.5046C112.456 36.4807 112.554 36.4827 112.647 36.5103C112.74 36.5378 112.823 36.59 112.889 36.6612C112.983 36.7777 113.05 36.9144 113.083 37.0607C113.116 37.207 113.116 37.3591 113.081 37.505C113.046 37.651 112.978 37.7869 112.882 37.9024C112.786 38.0179 112.665 38.1097 112.528 38.1708C111.295 38.5584 109.965 38.4911 108.778 37.9809C107.743 37.5062 107.429 36.5568 107.315 35.5076C107.239 34.7101 107.273 33.9078 107.22 33.0961ZM107.268 23.1269C106.506 23.8013 105.564 24.2386 104.557 24.3849C102.549 24.7979 100.494 24.8596 98.4619 25.0685C96.9954 25.1772 95.546 25.4527 94.1419 25.8898C91.8015 26.7015 90.3774 28.2254 90.1542 30.7889C90.001 32.0685 90.2956 33.3616 90.988 34.4486C91.6803 35.5356 92.7276 36.3493 93.952 36.7514C95.7265 37.3179 97.6141 37.4337 99.4446 37.0885C101.621 36.7666 103.608 35.6713 105.042 34.0035C106.476 32.3356 107.261 30.2067 107.254 28.007V23.1554L107.268 23.1269Z" fill="#2B2E83"/>
<path d="M0.00330339 24.5084C-0.0338721 21.6045 0.742289 18.7482 2.24399 16.2624C3.53509 14.1283 5.50144 12.4861 7.83147 11.5959C8.08181 11.4899 8.35268 11.4413 8.62426 11.4535C8.83689 11.4566 9.04118 11.5367 9.1992 11.679C9.35722 11.8213 9.45824 12.0162 9.48351 12.2273C9.51136 12.4258 9.46733 12.6277 9.35939 12.7966C9.25144 12.9655 9.08668 13.0902 8.89485 13.1483C7.85034 13.5398 6.88534 14.1172 6.04652 14.8525C4.26544 16.4345 3.02799 18.5373 2.50984 20.8625C1.59283 24.4065 1.88349 28.155 3.33585 31.5153C4.94041 35.2039 7.84571 37.0743 11.8476 37.2547C13.1788 37.3606 14.517 37.1732 15.7679 36.7056C17.0187 36.2381 18.1518 35.5018 19.0871 34.5487C20.5442 33.0412 21.4793 31.1061 21.7551 29.0277C21.7722 28.7624 21.8927 28.5144 22.0906 28.3369C22.2885 28.1594 22.5481 28.0665 22.8137 28.0783C23.5495 28.1115 23.8486 28.4723 23.7347 29.1986C23.4409 31.3251 22.5782 33.3326 21.2376 35.0092C19.6266 37.0026 17.3389 38.334 14.8099 38.75C12.3142 39.2598 9.72405 39.0304 7.35675 38.0902C4.42771 36.8939 2.50984 34.6912 1.31828 31.8143C0.403565 29.4892 -0.0432981 27.0065 0.00330339 24.5084Z" fill="#2B2E83"/>
<path d="M55.6016 24.8358V36.7039C55.6198 37.066 55.5699 37.4283 55.4544 37.772C55.3974 37.9578 55.2822 38.1204 55.1258 38.2358C54.9694 38.3512 54.7801 38.4133 54.5857 38.4129C54.3912 38.4156 54.2013 38.3537 54.0458 38.2369C53.8903 38.12 53.7779 37.9548 53.7264 37.7673C53.6212 37.4801 53.5697 37.1759 53.5745 36.87V12.626C53.5745 11.705 54.1537 11.235 54.937 11.5104C55.1272 11.5865 55.2905 11.7173 55.4063 11.8864C55.5221 12.0554 55.5851 12.255 55.5874 12.4598C55.5992 12.6178 55.5992 12.7765 55.5874 12.9345L55.6016 24.8358Z" fill="#2B2E83"/>
<path d="M15.9317 23.483C15.735 23.2862 15.5052 23.1255 15.2528 23.0083C15.2034 22.9957 15.1571 22.9732 15.1165 22.9423C15.0759 22.9114 15.042 22.8727 15.0168 22.8284C14.9915 22.7841 14.9754 22.7351 14.9695 22.6845C14.9636 22.6338 14.9679 22.5825 14.9822 22.5336C15.0087 22.0333 14.8829 21.5367 14.6214 21.1094C14.5328 20.9469 14.4077 20.8071 14.2559 20.7011C13.8952 20.3659 13.4528 20.1312 12.973 20.0204C12.4932 19.9096 11.9927 19.9266 11.5215 20.0698C11.1039 20.1798 10.7225 20.3975 10.4154 20.7011C10.1695 20.935 9.97912 21.221 9.85834 21.5381C9.73757 21.8552 9.68947 22.1954 9.71757 22.5336C9.71757 22.714 9.71757 22.8706 9.4897 22.9608C9.22417 23.0799 8.97907 23.2401 8.76337 23.4355C8.52083 23.6677 8.32781 23.9467 8.19594 24.2555C8.06407 24.5643 7.99609 24.8966 7.99609 25.2324C7.99609 25.5681 8.06407 25.9004 8.19594 26.2092C8.32781 26.5181 8.52083 26.797 8.76337 27.0292C8.83458 27.1004 8.91054 27.1668 8.99124 27.2333C9.82201 27.9027 10.6575 28.5625 11.4883 29.2176L11.8396 29.493C12.2668 29.83 12.4282 29.83 12.8555 29.493L13.1973 29.2176C14.0328 28.5388 14.873 27.8647 15.7275 27.2096L15.9459 27.0197C16.3609 26.6285 16.6163 26.0974 16.6628 25.5291C16.6833 25.1565 16.6292 24.7836 16.5037 24.4323C16.3782 24.0809 16.1837 23.7582 15.9317 23.483ZM10.4914 22.4529C10.4909 22.2141 10.5394 21.9779 10.634 21.7587C10.7286 21.5396 10.8672 21.3422 11.0412 21.1788C11.2153 21.0154 11.4211 20.8896 11.6458 20.8091C11.8705 20.7285 12.1093 20.695 12.3475 20.7106C12.5747 20.6998 12.8017 20.734 13.0155 20.8113C13.2293 20.8886 13.4258 21.0075 13.5935 21.1611C13.7611 21.3146 13.8968 21.4999 13.9926 21.7061C14.0883 21.9123 14.1423 22.1355 14.1515 22.3627C14.1515 22.5431 14.1515 22.6522 13.9046 22.676C13.3687 22.6786 12.8528 22.8798 12.4567 23.2409C12.3475 23.3548 12.2763 23.3311 12.1861 23.2409C11.7783 22.8625 11.2372 22.6611 10.6813 22.6807C10.4676 22.6807 10.4676 22.5858 10.4914 22.4529ZM15.1247 26.3171C14.2417 27.0149 13.3634 27.7413 12.4805 28.4391C12.4597 28.4602 12.4349 28.477 12.4076 28.4884C12.3803 28.4998 12.351 28.5057 12.3214 28.5057C12.2918 28.5057 12.2625 28.4998 12.2352 28.4884C12.2079 28.477 12.1832 28.4602 12.1624 28.4391C11.3079 27.765 10.4486 27.1099 9.61313 26.431C9.44876 26.2965 9.31656 26.127 9.22621 25.9347C9.13586 25.7425 9.08964 25.5326 9.09093 25.3202C9.09116 25.0055 9.19562 24.6997 9.38801 24.4506C9.58039 24.2015 9.84986 24.0232 10.1543 23.9435C10.4673 23.8608 10.7992 23.8872 11.0952 24.0183C11.3912 24.1495 11.6336 24.3776 11.7826 24.6651C11.8918 24.8692 12.0057 25.0733 12.2573 25.0971C12.5754 25.0971 12.7321 24.9404 12.8697 24.6651C13.0203 24.3687 13.2697 24.1343 13.5749 24.0025C13.8801 23.8707 14.2218 23.8498 14.5407 23.9435C14.8454 24.0354 15.1118 24.2242 15.2994 24.4812C15.487 24.7382 15.5857 25.0495 15.5804 25.3677C15.5748 25.5489 15.5314 25.7271 15.4529 25.8906C15.3744 26.0541 15.2626 26.1994 15.1247 26.3171Z" fill="#2B2E83"/>
<path d="M55.5998 3.72007C55.5998 4.22803 55.5998 4.73598 55.5998 5.24393C55.5666 6.03197 55.0776 6.45922 54.3845 6.34054C54.1523 6.30218 53.9427 6.17895 53.7962 5.99475C53.6497 5.81054 53.5768 5.5785 53.5918 5.34363C53.5918 4.26126 53.5918 3.17414 53.5918 2.08703C53.5935 1.88357 53.6388 1.68285 53.7247 1.49838C53.7913 1.33436 53.9057 1.19416 54.053 1.09596C54.2003 0.997764 54.3737 0.946106 54.5507 0.947697C54.7268 0.934658 54.9028 0.975311 55.0553 1.0643C55.2079 1.15329 55.3299 1.28643 55.4052 1.44616C55.5488 1.72967 55.619 2.04469 55.6093 2.36237V3.72007H55.5998Z" fill="#2B2E83"/>
<path d="M191.465 13.0629C190.792 13.0617 190.147 12.7935 189.672 12.3174C189.197 11.8412 188.93 11.1959 188.93 10.5232C188.93 9.8504 189.197 9.20512 189.672 8.72895C190.147 8.25279 190.792 7.98466 191.465 7.9834C192.138 7.98465 192.783 8.25264 193.259 8.72867C193.735 9.20469 194.003 9.84996 194.004 10.5232C194.003 11.1964 193.735 11.8416 193.259 12.3177C192.783 12.7937 192.138 13.0617 191.465 13.0629ZM191.465 8.50084C190.928 8.50084 190.414 8.71391 190.035 9.09317C189.655 9.47243 189.442 9.98681 189.442 10.5232C189.442 11.0595 189.655 11.5739 190.035 11.9532C190.414 12.3324 190.928 12.5455 191.465 12.5455C192.001 12.5455 192.515 12.3324 192.895 11.9532C193.274 11.5739 193.487 11.0595 193.487 10.5232C193.487 9.98681 193.274 9.47243 192.895 9.09317C192.515 8.71391 192.001 8.50084 191.465 8.50084Z" fill="#12A19A"/>
<path d="M191.325 10.3378C191.434 10.3459 191.543 10.3157 191.633 10.2524C191.668 10.2187 191.694 10.1777 191.71 10.1326C191.727 10.0874 191.733 10.0391 191.728 9.99127C191.732 9.94347 191.726 9.89539 191.709 9.85032C191.693 9.80525 191.667 9.76426 191.633 9.73017C191.542 9.67016 191.433 9.64333 191.325 9.65421H191.035V10.3378H191.325ZM191.035 10.8125V11.8189H190.352V9.1605H191.396C191.665 9.14009 191.933 9.20308 192.165 9.3409C192.25 9.40462 192.318 9.48915 192.361 9.5864C192.404 9.68365 192.422 9.79036 192.412 9.89632C192.418 10.0505 192.373 10.2025 192.284 10.3283C192.184 10.4484 192.05 10.5346 191.899 10.5752C191.996 10.5986 192.083 10.6498 192.151 10.7223C192.244 10.8229 192.319 10.9384 192.374 11.0641L192.749 11.8189H192.023L191.695 11.1591C191.652 11.0538 191.583 10.9608 191.496 10.8885C191.418 10.8341 191.324 10.8073 191.23 10.8125H191.035Z" fill="#12A19A"/>
<path d="M15.5749 25.3676C15.5669 25.5503 15.5206 25.7294 15.4388 25.893C15.357 26.0566 15.2416 26.2011 15.1002 26.317C14.2172 27.0149 13.3389 27.7412 12.4559 28.4391C12.4352 28.4601 12.4104 28.4769 12.3831 28.4883C12.3558 28.4998 12.3265 28.5057 12.2969 28.5057C12.2673 28.5057 12.238 28.4998 12.2107 28.4883C12.1834 28.4769 12.1586 28.4601 12.1379 28.4391C11.2834 27.7649 10.4241 27.1098 9.58863 26.431C9.42426 26.2965 9.29207 26.1269 9.20171 25.9347C9.11136 25.7425 9.06514 25.5325 9.06643 25.3201C9.06666 25.0054 9.17112 24.6996 9.36351 24.4506C9.55589 24.2015 9.82536 24.0232 10.1298 23.9434C10.4428 23.8607 10.7747 23.8871 11.0707 24.0183C11.3667 24.1495 11.6091 24.3776 11.7581 24.665C11.8673 24.8691 11.9812 25.0733 12.2328 25.097C12.5509 25.097 12.7076 24.9403 12.8452 24.665C12.9958 24.3686 13.2452 24.1342 13.5504 24.0024C13.8556 23.8706 14.1973 23.8498 14.5162 23.9434C14.8244 24.0319 15.095 24.2192 15.2863 24.4766C15.4776 24.7339 15.579 25.047 15.5749 25.3676Z" fill="#12A19A"/>
</svg>
